<svg width="511" height="137" viewBox="0 0 511 137" fill="none" xmlns="http://www.w3.org/2000/svg">
<g clip-path="url(#clip0_12_8)">
<path d="M421.864 106.954L421.754 106.898H421.712L421.532 106.76L421.435 106.718L421.2 106.608C421.172 106.608 421.172 106.58 421.158 106.58L421.075 106.566L420.937 106.538L420.826 106.455L420.784 106.428L420.618 106.331L420.244 106.165L420.037 106.082L419.732 105.957L419.704 105.943L419.441 105.846L419.164 105.777L419.04 105.722L418.957 105.666L418.804 105.583L418.541 105.458L418.5 105.445L418.167 105.265C418.112 105.251 418.001 105.195 417.946 105.168L417.614 105.029L417.226 104.905L416.866 104.752L416.727 104.697L416.547 104.545L416.437 104.448L416.229 104.309L416.118 104.254L415.827 104.088L415.717 104.032C415.689 104.018 415.675 104.005 415.661 104.005L415.564 103.977L415.44 103.908L415.301 103.783H415.287L415.149 103.645L415.066 103.52L415.01 103.465L414.9 103.368L414.858 103.312L414.803 103.243L414.747 103.146L414.692 103.091L414.678 102.994L414.623 102.938L414.609 102.772L414.581 102.675V102.426L414.595 102.385L414.623 102.205L414.692 102.038L414.789 101.817L414.858 101.706L414.914 101.623L415.107 101.402L415.204 101.291L415.398 101.055L415.634 100.931L415.717 100.862L416.049 100.64L416.174 100.585L416.201 100.557L416.589 100.405L416.686 100.335L417.06 100.155L417.267 100.072L417.614 99.8785L417.877 99.74L417.904 99.7262L418.43 99.5046L418.486 99.4908L418.583 99.4631L418.638 99.4492L418.68 99.4215L418.86 99.3662L418.984 99.3246L419.095 99.2831L419.455 99.2138L419.621 99.2C419.704 99.1862 419.787 99.1446 419.87 99.1308C419.926 99.1169 420.009 99.0754 420.05 99.0615L420.23 99.0338L420.507 98.9923L420.757 98.9508L420.812 98.9369L420.992 98.9092L421.241 98.8538L421.421 98.84H421.546L421.643 98.8677H421.781L421.92 98.9092C422.003 98.9231 422.141 98.9508 422.238 98.9923L422.321 99.02C422.432 99.1031 422.557 99.2138 422.626 99.38L422.64 99.4354L422.681 99.56V99.6569L422.654 99.8231V99.9754L422.626 100.142V100.28L422.418 100.377L422.252 100.349L422.086 100.211L421.934 100.017L421.906 99.8508L421.837 99.7538L421.767 99.6708C421.74 99.6708 421.698 99.6569 421.684 99.6569L421.56 99.6015L421.352 99.5323C421.297 99.5323 421.227 99.5046 421.172 99.5046L420.909 99.4908L420.715 99.5462L420.48 99.5877L420.272 99.6015L419.954 99.6846C419.815 99.6985 419.635 99.74 419.497 99.7538L419.358 99.7815C419.261 99.7954 419.178 99.8369 419.095 99.8508L418.818 99.9338C418.541 100.017 418.32 100.072 418.001 100.211L417.821 100.308L417.724 100.405L417.614 100.446L417.378 100.502L416.52 100.931L416.367 101.042L415.952 101.388C415.8 101.554 415.62 101.775 415.55 101.914L415.467 102.108L415.357 102.26L415.315 102.343C415.315 102.371 415.329 102.412 415.329 102.44L415.37 102.495L415.412 102.717L415.454 102.814L415.537 102.952C415.55 102.98 415.578 103.008 415.606 103.022L415.703 103.132L415.717 103.188C415.744 103.243 415.8 103.298 415.827 103.354L415.952 103.465L416.049 103.52L416.146 103.589L416.243 103.645L416.45 103.811L416.672 103.935L416.907 104.129L416.99 104.171C417.032 104.185 417.074 104.198 417.115 104.198L417.323 104.337L417.558 104.462C417.586 104.462 417.614 104.475 417.627 104.475L417.835 104.572L418.084 104.683L418.68 105.002H418.694L419.012 105.154L419.081 105.182L419.234 105.278L419.718 105.5L419.884 105.542L420.064 105.583L420.272 105.638L420.507 105.777L420.743 105.888L421.144 106.054L421.324 106.109L421.435 106.178L421.574 106.262L421.726 106.358L422.017 106.497L422.252 106.594L422.557 106.732C422.584 106.746 422.654 106.76 422.667 106.76L422.764 106.843L422.861 106.954L422.917 106.995L422.972 107.037L423.11 107.12C423.152 107.162 423.207 107.175 423.235 107.189C423.332 107.231 423.374 107.258 423.47 107.328L423.512 107.355L423.692 107.466L423.858 107.702C423.872 107.729 423.9 107.785 423.914 107.785L423.983 107.937L424.121 108.186L424.163 108.352C424.26 108.615 424.274 108.685 424.26 108.906C424.26 108.92 424.274 108.948 424.274 108.962V109.155L424.232 109.322L424.094 109.543C423.997 109.737 423.858 109.834 423.678 109.986L423.54 110.125C423.36 110.277 423.207 110.374 423.014 110.512C422.958 110.554 422.861 110.651 422.834 110.678L422.709 110.734H422.667L421.781 111.218H421.754L421.297 111.44L421.144 111.578L421.075 111.606L420.674 111.772L420.3 111.98L420.092 112.035L419.635 112.188L419.012 112.326L418.32 112.562L417.807 112.714L417.655 112.755L417.558 112.769L417.517 112.797L417.157 112.894L416.797 113.032L416.603 113.088L416.229 113.212L415.98 113.226L415.606 113.351L414.692 113.545L413.46 113.877L412.767 114.029L412.2 114.057H411.494C411.341 114.071 411.189 114.112 411.05 114.126L410.663 114.154C410.192 114.195 409.666 114.223 409.195 114.237L409.14 114.265L409.001 114.278L408.392 114.292H408.337L408.157 114.32L407.506 114.292L407.187 114.334L407.063 114.32L406.744 114.251C406.675 114.251 406.606 114.223 406.55 114.223L406.343 114.182L406.232 114.154H406.024L405.844 114.14L405.803 114.126L405.595 114.098L405.277 114.071L405.097 114.043L404.474 113.849C404.46 113.849 404.432 113.835 404.432 113.835L404.114 113.752L404.058 113.738L403.892 113.628C403.587 113.475 403.463 113.42 403.297 113.226L403.13 113.088L402.992 112.88L402.881 112.631L402.867 112.575L402.798 112.465L402.701 112.271L402.646 112.105V112.022L402.618 111.925V111.842L402.632 111.745L402.687 111.578C402.687 111.565 402.701 111.537 402.701 111.523L402.715 111.454L402.77 111.357C402.784 111.302 402.812 111.26 402.881 111.191L402.964 111.108L403.047 111.038L403.2 110.858C403.283 110.762 403.463 110.582 403.56 110.498L404.224 109.931L404.418 109.792L404.529 109.682L404.64 109.585L404.903 109.405L405.166 109.28L405.277 109.225L405.374 109.211L405.567 109.238V109.418L405.54 109.502L405.429 109.612L405.207 109.723C405.152 109.751 405.152 109.792 405.055 109.834L404.93 109.917L404.903 109.931L404.82 110.014L404.695 110.111L404.501 110.277L404.363 110.388L404.266 110.443L404.238 110.485L404.183 110.526L404.058 110.665L403.92 110.803L403.657 111.052C403.532 111.218 403.407 111.44 403.338 111.648L403.283 111.8C403.269 111.842 403.255 111.938 403.255 111.966V112.077L403.283 112.257L403.31 112.354L403.352 112.465L403.435 112.617L403.477 112.658L403.657 112.797L403.864 112.977L403.989 113.102L404.058 113.115C404.086 113.115 404.114 113.129 404.127 113.129L404.21 113.171L404.446 113.282L404.543 113.365H404.557L405 113.475L405.18 113.531L405.304 113.586H405.332C405.678 113.655 406.038 113.711 406.412 113.738C406.426 113.738 406.44 113.752 406.454 113.752L406.717 113.766H406.8C406.814 113.766 406.814 113.78 406.869 113.78L406.994 113.766L407.049 113.78L407.118 113.766H407.298L407.367 113.794L407.437 113.78L407.575 113.794H408.143L408.35 113.78L408.406 113.794L408.918 113.766L409.084 113.738L409.264 113.683L409.444 113.697L409.569 113.711L409.97 113.669H410.067L410.303 113.642L410.427 113.6L410.787 113.586L410.967 113.558L411.452 113.503L411.95 113.434L412.089 113.42L412.241 113.392H412.56L413.46 113.212L413.778 113.129L413.875 113.115L414.055 113.06L414.277 113.046L414.664 112.963L414.872 112.894L415.634 112.645L416.187 112.575L416.464 112.492L416.963 112.326H417.046L417.586 112.174L417.738 112.091L417.987 111.98L418.07 111.952L418.223 111.938L418.652 111.814L418.777 111.758L419.067 111.662L419.164 111.592L419.497 111.509L419.69 111.426L420.189 111.26L420.743 110.997L420.84 110.969L421.006 110.886L421.38 110.678L421.463 110.651L421.643 110.568L421.975 110.429L422.114 110.346L422.197 110.318C422.28 110.263 422.418 110.18 422.487 110.125L422.598 110.069L422.75 109.958L422.834 109.862L422.958 109.723L423.124 109.612L423.221 109.557C423.429 109.335 423.498 109.169 423.526 108.989C423.526 108.975 423.554 108.906 423.554 108.892L423.526 108.712L423.512 108.491C423.498 108.477 423.484 108.449 423.484 108.449L423.47 108.408L423.36 108.255L423.11 107.854C422.986 107.743 422.778 107.549 422.626 107.452L422.321 107.245L422.238 107.189L421.92 106.995L421.864 106.954ZM429.313 109.557L429.202 109.612L429.036 109.737L428.842 109.82L428.731 109.848L428.634 109.917L428.593 109.945C428.537 109.958 428.468 110 428.413 110.014L428.274 110.097L428.205 110.125L427.942 110.249L427.887 110.291L427.665 110.429L427.554 110.471C427.54 110.485 427.485 110.512 427.471 110.512L427.277 110.623L427.18 110.665L427.083 110.692L426.862 110.734L426.668 110.831L426.474 110.858L426.28 110.845L426.114 110.886L425.74 110.817C425.602 110.775 425.491 110.692 425.394 110.554L425.325 110.471L425.339 110.36C425.325 110.263 425.339 110.083 425.38 109.958V109.875L425.477 109.598L425.588 109.322C425.588 109.308 425.616 109.266 425.616 109.238L425.727 109.045L425.823 108.934C425.823 108.92 425.837 108.892 425.837 108.892L425.962 108.782L426.031 108.671C426.059 108.615 426.114 108.56 426.142 108.505L426.183 108.408L426.239 108.311L426.28 108.269C426.322 108.214 426.363 108.131 426.405 108.089L426.53 107.909L426.571 107.84L426.737 107.646L426.959 107.342L427.028 107.175L427.208 106.954L427.277 106.857L427.333 106.746L427.402 106.691L427.582 106.414L427.72 106.22L427.873 106.082C427.956 105.998 428.163 105.888 428.371 105.888C428.468 105.915 428.579 105.929 428.69 106.068V106.165L428.662 106.358L428.537 106.497L428.371 106.677L428.177 106.829L427.97 107.009L427.928 107.106L427.665 107.369L427.527 107.563L427.43 107.702L427.333 107.798C427.319 107.84 427.319 107.868 427.319 107.882L427.18 107.965C427.18 107.978 427.153 108.02 427.139 108.048L426.931 108.283L426.737 108.505L426.64 108.643L426.571 108.754L426.419 109.017L426.35 109.086C426.294 109.142 426.294 109.155 426.28 109.183L426.197 109.418L426.17 109.488L426.045 109.765L425.976 110.042V110.097L425.948 110.263V110.305H426.045L426.142 110.318L426.197 110.305L426.28 110.291L426.363 110.305H426.433C426.53 110.291 426.613 110.249 426.723 110.235L426.848 110.194L426.973 110.166C426.987 110.152 427.014 110.138 427.014 110.138L427.236 110.014L427.291 109.972L427.623 109.889L427.845 109.806L427.956 109.778L428.413 109.557L428.523 109.502L428.745 109.377L428.925 109.266L429.036 109.197L429.119 109.183L429.202 109.128L429.382 109.017L429.479 108.962L429.603 108.878L429.659 108.823L429.88 108.712L429.95 108.657L430.282 108.491L430.407 108.422L430.434 108.408L430.531 108.338H430.559L430.628 108.269L430.725 108.228L430.78 108.172L430.933 108.089L431.03 108.034L431.085 108.006L431.168 107.965C431.265 107.909 431.348 107.84 431.473 107.771L431.556 107.702L431.708 107.715L431.819 107.812L431.833 107.937L431.68 108.103L431.597 108.131L431.514 108.2L431.293 108.311L430.863 108.574L430.739 108.657L430.559 108.809L430.462 108.837L430.393 108.865C430.143 109.031 429.894 109.211 429.659 109.349L429.576 109.432L429.52 109.46L429.368 109.515L429.313 109.557ZM430.531 102.745L430.545 102.772C430.559 102.855 430.573 102.938 430.545 103.077C430.476 103.229 430.351 103.382 430.047 103.548L429.88 103.672L429.825 103.714C429.756 103.769 429.645 103.838 429.59 103.894L429.34 104.115L429.119 104.295L429.022 104.365C428.953 104.406 428.856 104.406 428.759 104.406L428.731 104.226L428.745 104.171L428.939 103.714L428.994 103.617L429.188 103.326L429.299 103.174L429.354 103.105L429.479 102.966L429.576 102.897L429.659 102.828L429.867 102.62L430.033 102.537L430.143 102.509C430.379 102.537 430.476 102.634 430.531 102.745ZM430.828 108.629L430.883 108.574C430.883 108.574 430.897 108.56 430.897 108.546L430.994 108.38L431.091 108.214L431.243 107.992L431.562 107.466L431.631 107.355L431.672 107.3L431.866 106.912L432.129 106.414C432.157 106.345 432.212 106.165 432.254 105.998C432.282 105.874 432.268 105.777 432.268 105.708C432.268 105.597 432.268 105.528 432.295 105.445C432.337 105.32 432.517 105.195 432.669 105.195C433.029 105.195 433.168 105.417 433.071 105.763C433.015 105.957 432.932 106.109 432.849 106.275L432.586 106.843L432.448 107.051L432.379 107.203L432.309 107.342L432.115 107.591L432.088 107.688L432.005 107.771C431.922 107.882 431.811 108.062 431.742 108.172L431.52 108.491C431.492 108.56 431.451 108.698 431.423 108.74L431.312 108.906L431.34 108.892L431.52 108.726L431.88 108.394L431.922 108.338L431.949 108.283L432.171 108.131L432.226 108.075L432.434 107.923L432.475 107.895L432.835 107.66L432.891 107.646L433.112 107.522C433.154 107.508 433.195 107.466 433.237 107.452C433.348 107.411 433.583 107.314 433.68 107.328H433.735L434.04 107.342L434.234 107.48L434.359 107.66L434.4 107.895V108.02L434.386 108.158L434.359 108.325L434.345 108.422V108.56L434.262 108.906C434.262 108.948 434.248 108.975 434.248 109.017L434.275 109.128L434.289 109.197C434.303 109.238 434.331 109.322 434.345 109.335L434.359 109.405L434.414 109.502C434.428 109.515 434.414 109.515 434.428 109.515L434.552 109.571C434.719 109.585 434.899 109.571 435.134 109.529L435.383 109.418L435.48 109.405C435.535 109.391 435.619 109.349 435.66 109.335L435.771 109.322L435.979 109.238L436.394 109.072H436.435L436.671 108.989L437.142 108.768L437.322 108.643L437.391 108.629L437.695 108.477L437.792 108.408L437.903 108.311L438.028 108.242L438.415 108.062L438.886 107.785L438.969 107.729L439.149 107.618L439.219 107.591L439.399 107.466H439.551L439.634 107.535L439.675 107.605L439.648 107.757L439.509 107.854L439.26 108.02C439.094 108.145 438.955 108.228 438.817 108.297L438.609 108.449L438.471 108.505L438.263 108.643L438.097 108.726C437.986 108.795 437.834 108.865 437.64 108.962L437.419 109.086L436.809 109.391H436.782C436.726 109.432 436.643 109.474 436.602 109.515L436.408 109.626L436.214 109.682C436.159 109.695 436.089 109.751 436.034 109.778L435.909 109.834L435.757 109.862L435.591 109.889L435.494 109.903L435.439 109.931L435.383 109.945L435.342 109.958C435.314 109.972 435.259 109.986 435.175 109.986L435.051 110.014L434.912 110.055L434.76 110.069L434.594 110.055L434.511 110.083L434.372 110.069C434.22 110.069 434.082 110.014 433.957 109.958H433.943L433.888 109.931C433.749 109.862 433.639 109.709 433.597 109.543C433.583 109.474 433.583 109.391 433.583 109.294V109.128L433.639 108.962L433.722 108.671L433.86 108.186C433.86 108.158 433.874 108.103 433.874 108.075C433.888 107.937 433.86 107.826 433.777 107.798C433.735 107.798 433.666 107.812 433.625 107.826C433.625 107.826 433.611 107.854 433.569 107.868L433.472 107.923L433.334 107.992L433.209 108.048L433.015 108.186L432.946 108.214L432.808 108.352L432.669 108.477L432.503 108.588C432.448 108.643 432.337 108.768 432.282 108.809L432.157 108.892L432.046 108.962L432.005 109.003L431.811 109.183L431.783 109.197L431.672 109.266L431.603 109.322L431.562 109.363L431.382 109.571L431.215 109.695L430.966 109.958L430.551 110.388L430.468 110.471L430.205 110.651L430.08 110.665C429.914 110.623 429.859 110.498 429.817 110.374C429.803 110.263 429.817 110.083 429.997 109.862L430.094 109.709L430.385 109.322L430.468 109.169L430.592 109.003L430.62 108.948L430.828 108.629ZM439.404 108.172L439.349 108.2L439.044 108.449L438.85 108.602L438.781 108.657L438.698 108.782L438.435 109.017L438.2 109.266L438.13 109.405L438.061 109.488L438.02 109.557C438.02 109.598 438.006 109.654 438.006 109.682L438.047 109.737L438.089 109.751L438.186 109.792C438.241 109.806 438.352 109.806 438.435 109.792C438.476 109.792 438.518 109.778 438.56 109.778L438.74 109.723L438.878 109.709H439.058L439.252 109.654L439.363 109.64L439.501 109.598L439.889 109.502H439.93L440.138 109.432L440.276 109.377L440.36 109.335L440.456 109.266L440.789 109.197L440.872 109.169L440.955 109.1L441.218 109.031C441.398 108.962 441.578 108.906 441.744 108.851L442.118 108.74L442.63 108.56L442.713 108.532L442.783 108.518L443.17 108.38L443.295 108.352L443.447 108.311L443.807 108.186L444.181 108.02L444.43 107.923L444.984 107.702C445.136 107.632 445.289 107.535 445.455 107.452L445.649 107.355L445.704 107.3L445.787 107.286H445.912L445.995 107.383L446.009 107.48L445.94 107.618L445.718 107.798L445.607 107.84C445.067 108.172 444.763 108.297 444.486 108.408L444.361 108.477L444.14 108.546L443.987 108.615H443.932L443.807 108.657L443.378 108.809L442.976 109.003L442.796 109.058L442.741 109.072L442.672 109.128L442.52 109.183L442.436 109.197L442.367 109.211L442.326 109.225L442.173 109.28L441.73 109.432L441.606 109.488L441.481 109.529L441.052 109.709L440.429 109.903C440.276 109.945 440.124 110.014 439.972 110.055L439.64 110.18L439.21 110.36L438.947 110.429L438.615 110.457H438.518L438.435 110.471L438.2 110.443L438.02 110.374C437.992 110.36 437.964 110.346 437.95 110.346L437.646 110.208L437.521 109.972L437.507 109.862L437.493 109.778C437.493 109.695 437.493 109.654 437.507 109.598V109.46L437.576 109.238L437.66 109.072L437.715 108.975L437.812 108.865L437.978 108.712L438.075 108.602V108.588L438.213 108.449L438.338 108.269L438.38 108.255L438.49 108.145L438.587 108.103C438.587 108.089 438.601 108.062 438.615 108.048L438.726 107.951L438.836 107.923L439.003 107.798C438.989 107.812 439.127 107.715 439.183 107.674L439.307 107.549H439.349C439.404 107.522 439.446 107.494 439.487 107.452L439.598 107.342L439.695 107.328L439.75 107.286L440.415 106.885L440.512 106.802L440.816 106.649L440.927 106.58L441.301 106.386L441.689 106.206L441.841 106.123L441.91 106.082L442.395 105.818L442.7 105.708L442.796 105.694L442.866 105.68C443.073 105.638 443.198 105.652 443.309 105.652H443.42C443.475 105.652 443.572 105.694 443.641 105.832C443.78 106.054 443.71 106.248 443.572 106.372C443.447 106.483 443.364 106.455 443.212 106.455H442.949L442.603 106.497L442.409 106.566L441.98 106.76L441.855 106.788L441.675 106.885L441.592 106.898C441.495 106.954 441.343 107.023 441.26 107.078H441.19L440.9 107.203L440.623 107.355L440.332 107.494L440.29 107.508L440.18 107.577L440.083 107.688L439.986 107.743L439.82 107.84L439.653 107.965L439.515 108.062L439.404 108.172ZM445.211 108.754L445.101 108.934C445.087 108.934 445.087 108.934 445.087 108.948L444.948 109.225C444.948 109.322 444.934 109.515 444.934 109.598C444.921 109.64 444.921 109.737 444.962 109.82C444.99 109.862 445.059 109.875 445.267 109.917L445.461 109.972H445.641L445.848 109.945L446.818 109.723L447.053 109.626L447.551 109.46L447.676 109.391L447.759 109.377L448.576 109.031L448.728 108.962L448.881 108.934L449.351 108.768L449.393 108.754C449.642 108.643 449.85 108.532 450.044 108.449L450.598 108.186L450.791 108.089L450.847 108.075L450.985 108.006L451.193 107.937L451.608 107.743L451.691 107.674L452.328 107.286L452.605 107.134C452.702 107.065 452.716 107.065 452.771 107.037C452.827 106.995 452.868 106.982 452.965 106.968C453.048 106.968 453.159 106.968 453.201 107.065C453.242 107.148 453.145 107.3 453.048 107.355L452.938 107.411L452.854 107.466L452.564 107.646L452.384 107.771L452.356 107.785L452.065 107.951L451.954 108.02L451.858 108.075L451.788 108.131L451.705 108.158H451.678L451.318 108.338C451.29 108.352 451.234 108.394 451.234 108.394L451.096 108.463C451.068 108.477 450.971 108.518 450.916 108.56L450.39 108.795L450.224 108.878C450.113 108.934 450.002 109.003 449.891 109.045L449.85 109.086L449.213 109.391L448.867 109.529L448.742 109.557L448.618 109.612C448.451 109.682 448.258 109.751 448.078 109.82C448.008 109.848 447.939 109.903 447.87 109.931L447.427 110.152L447.15 110.208L446.928 110.277L446.693 110.36L446.458 110.402L446.374 110.429C446.319 110.457 446.222 110.471 446.098 110.498L445.862 110.568L445.779 110.582L445.516 110.637L445.253 110.665L444.907 110.609L444.561 110.443L444.367 110.166L444.298 109.986L444.256 109.792L444.242 109.585L444.256 109.474V109.349L444.353 109.003L444.45 108.823C444.478 108.74 444.519 108.698 444.547 108.615L444.699 108.366L444.879 108.158L445.128 107.868L445.322 107.729L445.488 107.577L445.613 107.466L445.807 107.286L445.834 107.258C445.848 107.231 445.89 107.203 445.904 107.175L446.014 107.078L446.125 107.009L446.333 106.898L446.361 106.885L446.416 106.843C446.707 106.635 447.011 106.4 447.344 106.206L447.51 106.082L447.87 105.902L447.994 105.832L448.064 105.818L448.244 105.791C448.465 105.722 448.562 105.666 448.659 105.638L448.964 105.569H449.102C449.144 105.569 449.185 105.555 449.227 105.555H449.434C449.49 105.555 449.573 105.569 449.628 105.569C449.711 105.597 449.753 105.625 449.781 105.638L449.933 105.722C450.016 105.791 450.085 105.846 450.113 105.957L450.141 106.109L450.154 106.165L450.141 106.317L450.099 106.455L450.044 106.635L449.864 106.843L449.698 106.968L449.559 107.092L449.393 107.203L448.964 107.466L448.881 107.535L448.798 107.549C448.465 107.771 448.161 107.951 447.842 108.117L447.773 108.158L447.371 108.352L447.191 108.477L446.818 108.643L446.568 108.74L446.153 108.809L445.918 108.823H445.793L445.613 108.74L445.599 108.602L445.613 108.491C445.834 108.228 445.959 108.172 446.181 108.089C446.194 108.089 446.222 108.062 446.236 108.062C446.374 108.048 446.554 108.006 446.693 107.992L446.845 107.951L446.984 107.909L447.122 107.854L447.427 107.757L447.731 107.591L448.022 107.466C448.161 107.397 448.354 107.272 448.493 107.203L448.59 107.148L448.728 107.037L449.296 106.594C449.31 106.58 449.365 106.525 449.379 106.497C449.393 106.469 449.393 106.469 449.393 106.442L449.421 106.372L449.49 106.178C449.476 106.165 449.462 106.165 449.462 106.151L449.351 106.082C449.324 106.068 449.31 106.054 449.296 106.054H449.144L449.047 106.068L448.964 106.082C448.659 106.151 448.341 106.289 448.133 106.4L448.036 106.442L447.87 106.525L447.842 106.552L447.538 106.691L447.482 106.718L447.233 106.871L447.053 107.023L446.831 107.148L446.79 107.162L446.568 107.328C446.541 107.355 446.513 107.355 446.485 107.383C446.471 107.411 446.43 107.452 446.416 107.466L446.208 107.66L446.111 107.757L445.959 107.895L445.779 108.089L445.641 108.242L445.544 108.338C445.516 108.366 445.488 108.435 445.461 108.463L445.364 108.602L445.211 108.754ZM460.466 109.252L460.425 109.294L460.065 109.972V109.986L459.995 110.138L459.843 110.443L459.719 110.734L459.58 111.011L459.442 111.315L459.317 111.689L459.179 112.022C459.165 112.118 459.109 112.285 459.095 112.382L458.971 112.797L458.874 113.295L458.832 113.558C458.819 113.655 458.763 113.835 458.749 113.932L458.569 114.445C458.459 114.638 458.362 114.666 458.251 114.708L458.112 114.68L457.988 114.528L457.974 114.168L458.002 113.683C458.057 113.365 458.126 113.157 458.182 112.963L458.265 112.686L458.472 112.118C458.5 112.008 458.583 111.828 458.68 111.634C458.749 111.468 458.86 111.274 458.929 111.108L458.985 110.969L459.026 110.831L459.068 110.775L459.262 110.374L459.622 109.695L459.691 109.598L459.912 109.211L460.106 108.865L460.272 108.602L460.342 108.463L460.48 108.242L460.674 107.937L460.84 107.618C460.84 107.605 460.868 107.549 460.882 107.535L461.255 106.857L461.283 106.802C461.297 106.76 461.325 106.746 461.339 106.705L461.408 106.594L461.505 106.414L461.643 106.137L461.74 105.971L461.795 105.874L461.879 105.708L462.003 105.555V105.542L462.197 105.209L462.335 105.015C462.363 104.974 462.405 104.891 462.432 104.863L462.488 104.752L463.18 103.672L463.36 103.354L463.499 103.063L463.582 102.952L463.692 102.842C463.734 102.786 463.775 102.703 463.817 102.662L463.942 102.468L463.955 102.454C463.955 102.44 463.983 102.385 463.983 102.371L464.052 102.302L464.246 102.011L464.371 101.872C464.399 101.845 464.412 101.789 464.44 101.762L464.495 101.651L464.551 101.582L464.606 101.485L464.745 101.291V101.277L464.814 101.194L464.855 101.097L465.008 100.903C465.119 100.751 465.229 100.557 465.34 100.418L465.506 100.169L465.88 99.6569L466.06 99.3938L465.963 99.4631L465.672 99.6431L465.506 99.7262L465.285 99.92L465.119 100.045L464.994 100.142L464.495 100.668L464.329 100.806L464.135 100.958L464.052 101.014L464.066 101L463.928 101.083L463.803 101.194L463.595 101.346L463.512 101.415L463.429 101.485L463.332 101.595L462.986 101.872L462.917 101.9L462.765 102.052L462.571 102.218L462.502 102.232L462.391 102.315L462.405 102.302L462.335 102.357L462.211 102.482L462.128 102.551L462.086 102.592L461.892 102.758H461.851L461.699 102.883L461.588 103.008L461.422 103.105L461.228 103.257L461.103 103.368L461.034 103.437L460.882 103.534C460.826 103.575 460.729 103.617 460.702 103.658L460.383 103.922L460.3 103.977L459.995 104.212L459.94 104.254L459.857 104.309L459.331 104.669L459.234 104.766L459.192 104.78L459.026 104.877L458.735 105.002L458.32 105.195L458.043 105.278L457.905 105.306C457.822 105.32 457.697 105.32 457.462 105.237L457.392 105.015V104.738L457.462 104.6L457.669 104.378L457.919 104.309L458.292 104.254L458.722 104.157L458.777 104.143L459.012 104.046L459.179 103.963L459.483 103.769L459.995 103.478L460.383 103.215L460.508 103.118L460.965 102.731L461.56 102.302L461.782 102.163C461.879 102.094 461.975 101.997 462.072 101.928L462.086 101.914L462.169 101.858L462.432 101.651L462.64 101.526L463.069 101.194L463.305 100.986L463.499 100.82C463.859 100.502 464.288 100.142 464.648 99.8508L464.717 99.7954L464.772 99.7262L465.022 99.5323L465.188 99.38L465.312 99.2692L465.451 99.1585L465.562 99.0477L465.728 98.9231L465.935 98.7154L466.074 98.5631L466.24 98.4246L466.295 98.3692L466.42 98.2585L466.572 98.12L466.863 97.8708L467.029 97.8154L467.126 97.7877C467.389 97.7462 467.472 97.7462 467.555 97.7462H467.625L467.735 97.76L467.888 97.8846L467.902 98.0508L467.846 98.1615L467.666 98.3831L467.528 98.5077L467.445 98.6046L467.251 98.8123L467.112 99.0062L467.002 99.1169C466.946 99.1723 466.78 99.3938 466.78 99.3938L466.655 99.6292L466.503 99.8369L466.351 100.086L466.295 100.197L466.157 100.363C466.115 100.405 466.046 100.502 466.019 100.543L465.977 100.557C465.963 100.585 465.922 100.668 465.922 100.682L465.589 101.042L465.548 101.069L465.451 101.208L465.285 101.471L465.091 101.734L465.035 101.803C465.022 101.831 465.008 101.9 465.008 101.9L464.939 102.025L464.883 102.094V102.122L464.62 102.495V102.537L464.523 102.662V102.675L464.122 103.271L464.066 103.326L464.025 103.382L463.775 103.742L463.54 104.074C463.443 104.212 463.319 104.42 463.235 104.545L463.18 104.628L463.111 104.697L463.014 104.835L462.959 104.932L462.917 105.015L462.82 105.182L462.779 105.292L462.723 105.403L462.64 105.5L462.585 105.542L462.557 105.625C462.543 105.666 462.529 105.722 462.529 105.735L462.46 105.818L462.363 105.998L462.239 106.137L462.225 106.165C462.197 106.22 462.142 106.275 462.045 106.511L462.031 106.538L461.906 106.76L461.837 106.857L461.74 106.968L461.629 107.175L461.505 107.411L461.38 107.632C461.38 107.66 461.366 107.674 461.366 107.674L461.311 107.798L461.186 107.992L461.117 108.145L460.937 108.505L460.771 108.74C460.771 108.754 460.743 108.782 460.743 108.795L460.494 109.183L460.466 109.252ZM477.299 99.5462L477.188 99.6985L477.396 99.6431L477.728 99.6292L477.894 99.6846C478.005 99.6846 478.047 99.7123 478.13 99.8369C478.199 99.9615 478.213 100.142 478.213 100.349C478.213 100.529 478.199 100.778 478.171 101C478.171 101.028 478.185 101.055 478.185 101.069L478.144 101.208C478.144 101.263 478.144 101.291 478.13 101.318L478.074 101.831L478.033 101.886L477.867 102.745L477.811 102.966L477.797 102.994L477.77 103.16L477.756 103.229C477.673 103.562 477.604 103.838 477.59 103.949C477.521 104.295 477.451 104.628 477.368 104.974C477.354 105.071 477.313 105.168 477.299 105.265C477.285 105.278 477.271 105.334 477.271 105.334L477.202 105.625L477.077 106.04C476.925 106.525 476.787 106.912 476.607 107.342L476.565 107.632L476.454 107.785L476.399 108.006L476.357 108.103C476.344 108.145 476.316 108.158 476.302 108.2L476.164 108.408L476.122 108.463L476.067 108.588L475.901 108.809C475.873 108.878 475.804 108.975 475.762 109.045V109.072L475.734 109.169L475.665 109.238L475.499 109.488L475.457 109.543L475.084 110.014L474.862 110.291L474.834 110.332L474.613 110.651L474.433 110.817L474.377 110.872L474.253 110.942L474.004 111.246L473.948 111.371L473.824 111.44L473.796 111.454C473.768 111.495 473.699 111.592 473.699 111.606L473.588 111.634L473.491 111.689L473.464 111.717L473.381 111.758L473.256 111.814H473.242L473.159 111.897L473.048 111.98L472.799 112.229L472.744 112.243L472.577 112.368L472.522 112.382L472.301 112.52C471.816 112.825 471.276 113.06 470.611 113.351L470.459 113.42L470.39 113.462L470.21 113.558L470.016 113.669L469.905 113.697L469.781 113.711L469.628 113.78L469.504 113.808L469.324 113.863L469.241 113.891L469.088 113.946C468.714 114.071 468.341 114.14 467.884 114.209L467.607 114.251C467.344 114.292 467.108 114.306 466.873 114.306C466.721 114.306 466.541 114.306 466.416 114.278L465.834 114.182C465.751 114.182 465.627 114.154 465.557 114.154L465.391 114.098C465.35 114.098 465.253 114.071 465.239 114.071L465.059 114.029L464.657 113.891L464.533 113.835C464.519 113.835 464.45 113.835 464.297 113.752L464.214 113.697L463.854 113.489L463.633 113.337C463.522 113.24 463.439 113.157 463.384 113.074C463.314 112.991 463.259 112.908 463.134 112.825C462.802 112.548 462.567 112.132 462.387 111.703L462.373 111.689L462.262 111.551L462.124 111.357L462.096 111.232L462.027 111.025L461.971 110.72L462.027 110.526L462.096 110.443L462.165 110.457L462.234 110.498L462.387 110.734C462.511 110.942 462.594 111.135 462.705 111.357C462.83 111.592 462.954 111.828 463.093 112.049L463.231 112.202L463.259 112.326L463.273 112.368C463.287 112.395 463.328 112.437 463.328 112.437C463.453 112.672 464.034 113.115 464.367 113.295L464.574 113.406C464.588 113.42 464.602 113.42 464.657 113.448C464.671 113.448 464.713 113.475 464.727 113.475L465.059 113.572L465.184 113.642L465.253 113.669C465.654 113.78 465.917 113.794 466.333 113.808H466.416L466.901 113.835L467.219 113.808L467.662 113.766L467.759 113.752H467.801C468.119 113.683 468.257 113.655 468.548 113.558L468.742 113.503L469.102 113.378L469.628 113.24L469.919 113.129L470.071 113.074L470.237 113.005C470.39 112.935 470.542 112.88 470.694 112.797L471.137 112.575L471.179 112.548L471.276 112.395L471.47 112.368L471.539 112.298L471.677 112.271C471.788 112.215 471.954 112.105 472.065 112.035C472.093 111.994 472.121 111.98 472.204 111.911L472.397 111.745L472.744 111.551L472.799 111.495C472.937 111.412 472.937 111.426 472.993 111.371C472.993 111.343 473.007 111.329 473.007 111.315L473.214 111.191L473.353 111.038L473.436 110.955C473.45 110.942 473.547 110.858 473.574 110.817L473.782 110.637V110.609L473.879 110.512C473.879 110.498 473.907 110.443 473.921 110.429L474.114 110.249L474.197 110.097L474.267 110.083L474.876 109.349L474.931 109.335L475.139 109.072L475.222 108.948L475.374 108.685L475.444 108.602L475.79 107.937L475.901 107.757C476.011 107.508 476.067 107.286 476.15 107.037C476.205 106.885 476.219 106.788 476.261 106.663C476.261 106.649 476.288 106.622 476.288 106.608L476.399 106.262L476.482 105.985L476.537 105.652L476.69 105.112L476.731 105.002C476.731 104.932 476.759 104.849 476.759 104.78L476.814 104.6L476.925 104.212L477.022 103.922L477.077 103.7L477.119 103.52C477.161 103.285 477.23 103.022 477.271 102.786L477.396 102.191V101.789L477.424 101.651L477.479 101.485L477.521 101.249L477.562 101.083V101.014L477.576 100.958C477.576 100.778 477.576 100.598 477.562 100.391C477.562 100.391 477.507 100.418 477.451 100.432L477.216 100.515L476.828 100.668L476.537 100.82L475.831 101.152H475.804L475.499 101.36L475.361 101.429L474.779 101.706H474.751L474.668 101.775L474.641 101.789L474.419 101.886L474.322 101.9L473.408 102.315C473.394 102.315 473.367 102.343 473.353 102.343L473.034 102.537L472.91 102.592L472.633 102.758L472.425 102.883L472.287 102.966L472.19 103.008L472.024 103.063L471.968 103.091L471.816 103.174L471.484 103.285L471.345 103.312L471.11 103.409L470.75 103.548L470.625 103.589L470.348 103.686L470.21 103.728L470.127 103.742L469.961 103.797L469.822 103.811L469.628 103.866H469.462C469.061 103.894 468.659 103.852 468.521 103.603C468.493 103.575 468.465 103.52 468.451 103.492L468.382 103.437L468.327 103.188L468.341 103.008L468.354 102.966C468.354 102.855 468.354 102.745 468.382 102.648C468.437 102.412 468.465 102.343 468.465 102.302L468.493 102.191L468.548 102.08L468.617 101.969C468.728 101.734 468.881 101.512 469.005 101.402C469.019 101.388 469.033 101.374 469.033 101.36L469.157 101.18L469.324 101.028L469.614 100.751L469.794 100.598C469.919 100.488 469.933 100.474 470.002 100.432C470.016 100.432 470.03 100.418 470.127 100.349L470.279 100.225L470.404 100.114L470.667 99.9062L470.764 99.8369L470.874 99.74L470.971 99.6985L471.165 99.5877L471.304 99.4908L471.387 99.4492L471.83 99.1723L471.941 99.1308C472.481 98.8262 473.034 98.5631 473.63 98.3692L473.699 98.3277L474.004 98.2585L474.017 98.2446L474.101 98.2169H474.156L474.53 98.1062L474.779 98.0369L474.848 98.0231L474.917 97.9954L475.111 97.9538H475.153C475.457 97.8846 475.845 97.8569 476.15 97.8985C476.371 97.9123 476.676 98.0231 476.939 98.12C477.188 98.2308 477.257 98.2862 477.299 98.3277L477.313 98.3554L477.424 98.5631L477.451 98.8123L477.437 98.9092L477.451 99.0338L477.437 99.1308L477.41 99.2415L477.382 99.38L477.299 99.5462ZM471.082 102.883L471.248 102.814L471.442 102.689L471.539 102.648L471.733 102.606L471.719 102.62L472.342 102.343L472.425 102.288L472.813 102.108L472.854 102.08L472.951 102.038L473.131 101.928L473.616 101.665L473.768 101.582L474.405 101.18L474.53 101.125L474.71 100.986L474.821 100.931L474.876 100.903L475.264 100.682C475.277 100.682 475.43 100.598 475.568 100.529L475.831 100.391C476.011 100.28 476.164 100.211 476.344 100.1V100.072L476.357 99.9754C476.385 99.9477 476.427 99.9062 476.441 99.8785V99.8646L476.51 99.7538L476.607 99.6431L476.773 99.4492C476.801 99.4215 476.842 99.3662 476.828 99.38C476.897 99.2831 476.897 99.2692 476.967 99.1585C476.994 99.1031 477.008 99.0892 477.022 99.02L477.05 98.9231L477.064 98.7708L477.036 98.6185C476.884 98.3554 476.371 98.3 475.859 98.3277L475.582 98.3692L475.347 98.3831C475.097 98.4246 474.904 98.48 474.765 98.5077C474.724 98.5215 474.682 98.5354 474.627 98.5354C474.322 98.6185 474.004 98.7154 473.699 98.8262L473.574 98.8677C473.561 98.8677 473.561 98.8677 473.533 98.8954L473.422 98.9092L473.353 98.9369C472.993 99.0754 472.619 99.2415 472.204 99.4492L472.051 99.56L471.968 99.5877L471.885 99.6292C471.497 99.8508 471.096 100.1 470.708 100.405L470.653 100.446L470.307 100.723L470.265 100.765C470.085 100.945 469.781 101.263 469.628 101.429C469.559 101.526 469.421 101.817 469.296 102.149L469.254 102.302L469.199 102.592L469.171 102.689L469.157 102.731C469.157 102.772 469.144 102.814 469.144 102.842V103.035L469.185 103.202L469.324 103.312C469.351 103.312 469.379 103.326 469.407 103.326C469.822 103.395 470.556 103.118 471.082 102.883ZM482.281 105.528L482.503 105.362C482.572 105.278 482.696 105.168 482.766 105.085L483.139 104.808L483.389 104.669L483.43 104.642L483.555 104.545L483.735 104.406L483.984 104.212L484.026 104.185L484.219 104.005L484.123 103.797L484.109 103.728L484.039 103.562V103.534C484.012 103.492 483.956 103.395 483.943 103.354L483.901 103.271L483.846 103.174L483.763 103.022L483.721 102.938L483.693 102.8L483.679 102.758C483.666 102.731 483.624 102.675 483.624 102.662L483.541 102.343C483.43 102.052 483.416 101.9 483.389 101.72L483.333 101.429L483.319 101.36L483.278 101.277L483.25 101.111L483.195 100.972L483.167 100.529C483.167 100.488 483.181 100.266 483.209 100.197L483.236 100.058L483.278 99.9615C483.278 99.9338 483.306 99.8785 483.306 99.8646L483.375 99.7538L483.444 99.6708L483.596 99.4908L483.666 99.4769L483.763 99.4077L483.97 99.2831L484.178 99.2C484.233 99.1723 484.247 99.2 484.538 99.1169H484.912L485.106 99.1446L485.299 99.1585L485.383 99.1723L485.493 99.1862L485.59 99.2277C485.632 99.2554 485.673 99.2692 485.715 99.2692L485.853 99.2969L485.964 99.3523L486.227 99.5185L486.31 99.56C486.379 99.6015 486.435 99.6708 486.504 99.7538L486.559 99.8231L486.712 99.9615L486.892 100.197L486.933 100.322L487.003 100.557L487.03 100.737L487.044 100.834L487.058 101.042L487.03 101.208L486.85 101.235L486.726 101.208L486.629 101.152L486.449 101L486.324 100.82V100.806L486.186 100.515L486.033 100.197L485.964 100.1L485.618 99.7677C485.563 99.7262 485.479 99.6846 485.438 99.6431L485.383 99.6154C485.355 99.6154 485.299 99.5877 485.286 99.5877C485.05 99.5462 484.912 99.5462 484.663 99.6015L484.593 99.6154L484.413 99.7262L484.33 99.7677L484.206 99.8369L484.081 99.9338L483.956 100.017C483.929 100.058 483.873 100.142 483.859 100.183C483.804 100.294 483.763 100.432 483.776 100.598V100.778C483.776 100.834 483.79 100.862 483.79 100.917L483.832 100.972L483.859 101.291L483.901 101.346L483.915 101.457L483.956 101.72L483.984 101.817L483.998 101.969L484.053 102.094L484.109 102.246V102.343L484.123 102.412C484.261 102.869 484.247 102.772 484.275 102.855L484.372 103.091L484.524 103.423L484.566 103.52L484.621 103.603L484.663 103.686L484.732 103.631L484.773 103.617L485.59 102.994L485.646 102.938L485.77 102.8L485.978 102.689L486.199 102.509C486.227 102.482 486.296 102.426 486.31 102.398L486.476 102.288L486.656 102.135L486.726 102.038H486.753L486.809 101.969L486.975 101.845H486.989L487.238 101.623L487.335 101.526L487.446 101.402L487.543 101.332L487.626 101.277L487.819 101.111L487.875 101.055L488.013 100.931L488.083 100.862L488.263 100.709C488.304 100.654 488.401 100.557 488.429 100.529L488.623 100.391L488.886 100.128L488.955 100.072L489.038 99.9892L489.149 99.8923L489.564 99.4492L489.675 99.3108C489.703 99.2692 489.786 99.1862 489.827 99.1446L489.896 99.02L490.132 98.7846L490.353 98.4938L490.533 98.3969L490.741 98.48L490.838 98.6738L490.769 98.84L490.312 99.2831L490.27 99.3246L490.159 99.4769L489.924 99.7123L489.869 99.7538L489.716 99.92L489.578 100.058C489.55 100.114 489.495 100.169 489.467 100.225L489.384 100.322L489.315 100.377L489.259 100.46L488.913 100.82L488.789 100.917L488.636 101.028C488.539 101.097 488.443 101.194 488.346 101.263L487.875 101.678L487.543 101.969L487.446 102.066L486.989 102.468L486.933 102.482L486.726 102.675L486.67 102.689L486.573 102.745C486.504 102.786 486.421 102.869 486.338 102.925C486.13 103.077 485.923 103.257 485.715 103.409L485.576 103.548L485.466 103.617L485.327 103.7L485.244 103.783L485.161 103.838L485.064 103.894L484.912 104.046L484.829 104.102L484.856 104.171L484.953 104.42L485.092 104.642L485.133 104.725L485.216 104.96L485.396 105.32L485.729 106.289L485.743 106.331L485.798 106.483L485.867 106.608L485.964 106.774L486.033 106.968L486.047 106.995L486.089 107.134L486.116 107.231L486.13 107.314V107.397L486.227 107.729V107.715L486.283 107.84L486.352 108.006V108.048L486.393 108.228V108.352L486.421 108.532L486.449 108.657L486.49 109.183L486.532 109.654L486.435 109.986L486.379 110.305L486.338 110.415C486.227 110.72 486.075 110.969 485.909 111.246C485.895 111.302 485.881 111.371 485.853 111.44L485.729 111.634L485.632 111.814L485.355 112.105L485.23 112.243L485.203 112.257C485.064 112.423 484.898 112.603 484.732 112.783C484.69 112.838 484.635 112.894 484.593 112.963L484.469 113.088L484.358 113.185L484.219 113.337L484.067 113.448L483.901 113.6L483.804 113.697L483.679 113.766L483.527 113.849L483.458 113.891L483.43 113.932L483.139 114.071L482.863 114.251L482.503 114.486L482.378 114.597L482.184 114.68C482.143 114.708 482.059 114.805 482.004 114.846L481.879 114.902L481.796 114.957L481.644 115.012L481.561 115.04L481.409 115.123L481.298 115.151C481.146 115.234 481.035 115.289 480.91 115.331L480.772 115.4L480.439 115.525L480.052 115.691H480.024C479.595 115.843 479.193 115.954 478.847 116.037L478.653 116.092H478.543C478.501 116.092 478.473 116.106 478.432 116.106C478.293 116.134 478.113 116.148 477.989 116.162L477.767 116.203L477.601 116.217L476.936 116.189L476.604 116.148L476.216 116.106L475.953 115.968L475.635 115.76L475.427 115.552L475.344 115.414L475.303 115.317L475.233 115.137L475.178 115.012L475.164 114.874L475.123 114.348L475.164 114.168C475.178 114.14 475.192 114.098 475.192 114.071L475.219 113.918L475.247 113.822C475.247 113.808 475.261 113.794 475.261 113.752L475.275 113.655L475.289 113.586L475.427 113.282L475.593 112.908C475.593 112.866 475.621 112.783 475.621 112.755L475.663 112.7L475.801 112.451L475.87 112.298L475.912 112.132L476.064 111.8L476.286 111.578L476.369 111.412L476.479 111.302L476.659 111.052L476.729 110.955L476.784 110.845L477.144 110.402L477.255 110.249L477.476 110C477.559 109.875 477.587 109.848 477.629 109.806C477.656 109.778 477.684 109.765 477.753 109.668L477.85 109.557L478.196 109.183L478.349 109.031L478.432 108.892L479.179 108.2L479.235 108.145L479.29 108.062L479.429 107.965L479.636 107.771C479.678 107.715 479.747 107.605 479.789 107.563L480.426 106.982L480.536 106.94L481.173 106.414C481.187 106.4 481.284 106.331 481.312 106.289L481.381 106.262C481.423 106.234 481.533 106.109 481.575 106.082C481.589 106.068 481.63 105.998 481.63 105.985L481.783 105.915L482.073 105.68L482.281 105.528ZM477.089 111.288L476.964 111.482L476.853 111.703L476.618 112.035L476.438 112.34L476.396 112.423C476.327 112.575 476.23 112.728 476.161 112.88L476.119 112.991L476.009 113.254L475.981 113.323L475.926 113.517C475.926 113.586 475.898 113.697 475.898 113.752L475.856 114.168L475.87 114.32L475.856 114.375V114.458L475.912 114.818L475.995 114.985L476.106 115.151L476.355 115.303C476.41 115.331 476.438 115.331 476.507 115.358H476.563L476.687 115.372L476.839 115.4L477.047 115.414L477.269 115.428L477.684 115.483C477.892 115.483 478.099 115.497 478.321 115.497C478.459 115.483 478.612 115.442 478.75 115.428L478.833 115.4H478.93L479.553 115.206L479.858 115.137L479.899 115.123L480.163 115.026L480.315 114.971L480.481 114.888L480.564 114.86L480.716 114.818L480.855 114.749L480.924 114.735H480.938L480.952 114.722L481.035 114.666L481.132 114.597L481.27 114.542L481.395 114.528L481.423 114.514L481.575 114.417L481.879 114.265L482.184 114.085L482.267 114.043L482.378 113.974L482.516 113.918L482.544 113.905L483.015 113.545L483.209 113.406L483.444 113.226L483.569 113.129L483.763 112.977L483.818 112.908L483.943 112.797L484.067 112.714L484.081 112.7L484.15 112.603L484.233 112.506L484.372 112.395L484.538 112.229L484.759 111.98C484.801 111.911 484.884 111.814 485.092 111.606L485.175 111.495C485.189 111.468 485.23 111.44 485.244 111.412L485.313 111.315L485.466 111.094L485.535 110.983L485.59 110.9C485.646 110.817 485.673 110.734 485.729 110.623C485.729 110.582 485.743 110.526 485.743 110.498L485.798 110.402C485.798 110.374 485.826 110.305 485.826 110.277L485.867 110.166V110.138L485.895 110.014V109.945C485.895 109.862 485.909 109.751 485.895 109.64L485.853 109.405L485.798 109.086L485.812 108.823L485.784 108.491C485.756 108.325 485.701 108.117 485.673 107.937L485.659 107.826C485.59 107.577 485.521 107.3 485.438 107.051L485.396 106.926L485.369 106.815C485.355 106.788 485.313 106.732 485.313 106.718V106.622L485.133 106.206L485.064 106.068L484.995 105.846V105.818L484.884 105.542L484.829 105.445C484.829 105.417 484.801 105.375 484.787 105.334L484.69 105.098L484.676 105.071L484.538 104.766L484.524 104.697C484.496 104.614 484.441 104.475 484.399 104.406L484.095 104.628L483.901 104.78C483.901 104.794 483.887 104.835 483.887 104.835L483.583 105.057L483.555 105.071L483.458 105.14L483.347 105.209L483.264 105.306L483.07 105.431L483.029 105.472L482.572 105.846L482.53 105.902L482.419 105.998L482.253 106.123L481.976 106.317H481.99L481.519 106.732V106.718L481.367 106.871L481.284 106.926L481.298 106.912L481.159 107.009L480.979 107.162L480.924 107.203L480.675 107.425L480.619 107.508L480.536 107.605L480.439 107.66L480.343 107.771L480.176 107.923L480.135 107.978L480.038 108.048L479.913 108.228L479.609 108.491C479.553 108.546 479.512 108.574 479.456 108.643L479.263 108.795L478.889 109.183L478.598 109.46L478.501 109.557C478.432 109.626 478.404 109.682 478.349 109.751L478.279 109.903L478.003 110.166V110.152L477.698 110.457C477.67 110.485 477.643 110.554 477.615 110.582L477.504 110.706L477.393 110.858L477.296 110.983L477.089 111.288ZM491.698 99.1308H491.739L491.809 99.1031L492.072 99.0477L492.321 98.9785H492.418L492.57 98.9646L492.736 98.9508H492.875L492.944 98.9369L493.484 98.8815H493.789L494.287 98.8538L494.453 98.8677L494.703 98.8815L494.966 98.8677L495.173 98.8954L495.367 98.8815L495.575 98.8954L495.741 98.8677L496.115 98.8954L496.364 98.8815H496.461L496.766 98.9508C496.821 98.9508 496.876 98.9369 496.932 98.9369H497.043L497.139 98.9785C497.25 98.9785 497.361 99.0062 497.458 99.0062C497.486 99.0062 497.513 98.9923 497.555 99.0338L497.693 99.0615C497.749 99.0754 497.832 99.1031 497.873 99.1031L497.915 99.1169C497.97 99.1169 498.012 99.1169 498.039 99.1308C498.081 99.1308 498.123 99.1169 498.164 99.1169L498.344 99.1446L498.552 99.2277C498.607 99.2277 498.69 99.2554 498.746 99.2554L498.912 99.2831L499.036 99.38C499.078 99.4077 499.161 99.4631 499.203 99.4769C499.327 99.6015 499.424 99.7815 499.466 99.9062L499.507 100.045C499.535 100.114 499.535 100.128 499.507 100.211C499.244 100.585 499.023 100.792 498.801 100.972L498.746 101L498.51 101.235L498.358 101.332L498.178 101.457L498.026 101.512C498.012 101.512 498.012 101.512 497.998 101.526L497.707 101.637L497.486 101.748L496.696 102.08L496.613 102.135L496.475 102.191L496.378 102.205L496.129 102.315L496.018 102.343L495.935 102.371L495.506 102.592C495.409 102.662 495.298 102.758 495.256 102.814C495.243 102.828 495.256 102.842 495.27 102.855V102.897L495.423 102.966H495.436L495.547 103.077C495.589 103.105 495.616 103.146 495.672 103.174L495.838 103.298C495.879 103.34 495.893 103.368 496.004 103.409L496.129 103.465C496.226 103.492 496.323 103.548 496.419 103.575L496.641 103.672L496.959 103.811L497.306 103.935L497.43 103.977L497.638 104.046L498.316 104.254L498.399 104.295L498.593 104.365C498.663 104.365 498.746 104.392 498.815 104.392L498.981 104.448L499.161 104.572L499.355 104.642L499.438 104.683L499.604 104.794C499.729 104.849 499.936 104.988 500.186 105.168H500.199L500.296 105.251L500.518 105.472L500.601 105.528L500.643 105.569L500.753 105.625L500.864 105.735L500.989 105.985L501.016 106.095L501.086 106.192L501.113 106.303L501.141 106.345L501.155 106.442V106.871L501.127 106.954C501.127 107.009 501.127 107.092 501.113 107.134C501.099 107.162 501.086 107.203 501.086 107.217L501.03 107.355C501.016 107.369 501.016 107.383 501.016 107.383L500.989 107.438C500.989 107.452 500.975 107.494 500.975 107.508L500.864 107.688L500.795 107.771L500.767 107.826C500.698 107.909 500.559 108.062 500.407 108.214L500.31 108.311L500.172 108.422L500.103 108.518L500.019 108.546L499.923 108.643L499.839 108.712L499.743 108.754L499.646 108.837L499.535 108.906L499.341 109.017L499.258 109.058L499.147 109.128L498.926 109.252L498.759 109.363L498.635 109.432L498.538 109.46L498.261 109.571L497.97 109.723L497.901 109.792L496.904 110.318L496.779 110.374L496.627 110.402L496.433 110.485L495.838 110.692L495.686 110.789L495.506 110.872L495.215 110.928L494.149 111.191C494.093 111.205 494.01 111.246 493.969 111.26L493.816 111.288L493.387 111.385L492.889 111.537L492.764 111.592L492.556 111.62L492.418 111.648L492.252 111.703L492.113 111.717L492.03 111.731L491.933 111.758L491.836 111.772L491.753 111.786L491.712 111.8H491.615L491.518 111.842L490.743 111.994H490.646L490.438 112.008L490.383 112.035H490.161L490.036 112.077L489.746 112.105L489.69 112.118L489.607 112.146H489.469L489.427 112.16L489.303 112.174L488.984 112.202H488.79C488.693 112.215 488.555 112.215 488.486 112.215C488.43 112.215 488.375 112.229 488.292 112.229C488.236 112.229 488.153 112.243 488.084 112.257C487.946 112.271 487.835 112.285 487.641 112.271C487.627 112.257 487.599 112.257 487.572 112.257C487.503 112.257 487.447 112.271 487.392 112.271H487.198L487.032 112.257L486.893 112.229L486.838 112.243L486.644 112.229H486.561L486.367 112.215L486.187 112.16C485.855 112.132 485.523 111.98 485.232 111.8C485.107 111.731 484.844 111.62 484.692 111.482C484.65 111.44 484.65 111.44 484.623 111.385L484.609 111.315L484.636 111.149L484.733 111.135H484.816L484.899 111.191L484.941 111.205C484.969 111.205 484.983 111.218 485.01 111.218L485.204 111.329L485.536 111.468L485.661 111.509C485.689 111.509 485.758 111.537 485.772 111.537L485.869 111.592C485.896 111.606 485.993 111.62 486.021 111.62C486.076 111.648 486.146 111.662 486.201 111.675C486.229 111.675 486.27 111.703 486.284 111.703L486.921 111.786C486.963 111.786 487.018 111.8 487.046 111.8L487.35 111.814L487.461 111.8H487.655L487.835 111.814L488.07 111.786H488.25L488.403 111.772L488.513 111.745L488.887 111.717L489.081 111.689H489.192L489.275 111.703L489.649 111.662L489.856 111.634L489.939 111.62L490.175 111.592L490.424 111.565L490.812 111.482L490.923 111.44L491.213 111.398C491.559 111.315 491.933 111.232 492.307 111.122L492.363 111.108L492.543 111.066C492.653 111.025 492.695 111.025 493.013 110.886L493.387 110.789L493.526 110.748L493.636 110.72L493.872 110.651L493.941 110.637L493.996 110.623L494.052 110.582L494.176 110.568L494.384 110.485L494.509 110.402L495.215 110.235L495.381 110.18L495.423 110.166L495.63 110.069L495.824 110.014L495.976 109.958L496.253 109.862C496.281 109.848 496.392 109.82 496.406 109.806C496.489 109.778 496.627 109.737 496.807 109.654L497.07 109.571L497.43 109.391L497.555 109.308L497.693 109.28L497.749 109.252L497.998 109.155L498.109 109.1L498.261 109.045L498.316 109.003L498.552 108.906L498.676 108.837L498.953 108.685L499.078 108.56L499.272 108.463L499.341 108.394L499.466 108.311C499.466 108.311 499.507 108.297 499.535 108.255L499.743 108.145L499.756 108.131C499.826 108.089 499.881 108.034 499.936 107.978L499.992 107.895L500.13 107.743L500.227 107.563L500.213 107.591C500.227 107.563 500.241 107.549 500.241 107.535L500.283 107.438V107.397L500.366 107.175C500.366 107.12 500.379 107.037 500.379 106.995L500.407 106.912V106.649L500.379 106.442L500.338 106.262L500.324 106.192C500.296 106.137 500.255 106.068 500.227 106.04L500.186 105.915L500.144 105.846C500.13 105.818 500.144 105.818 500.103 105.777H500.075L499.964 105.68L499.895 105.597C499.867 105.597 499.853 105.583 499.839 105.555L499.729 105.472L499.646 105.403L499.521 105.334L499.383 105.251C499.299 105.195 499.189 105.14 499.092 105.098L498.981 105.057L498.87 105.015L498.69 104.974L498.552 104.891C498.51 104.877 498.469 104.835 498.427 104.822L497.984 104.655C497.929 104.655 497.859 104.628 497.804 104.628L497.61 104.545C497.541 104.545 497.486 104.517 497.416 104.517L497.292 104.489L497.153 104.434L497.043 104.378L496.918 104.323C496.89 104.323 496.835 104.295 496.821 104.295L496.779 104.268L496.392 104.115L496.129 104.005C495.769 103.866 495.159 103.575 494.91 103.271C494.813 103.188 494.772 103.035 494.786 102.938C494.786 102.911 494.799 102.883 494.799 102.855C494.799 102.731 494.799 102.62 494.869 102.495L494.924 102.398L494.993 102.302L495.132 102.191L495.201 102.149C495.243 102.122 495.298 102.052 495.339 102.025L495.561 101.942L495.783 101.831L495.893 101.762L496.018 101.678L496.156 101.651L496.212 101.623L496.461 101.526L496.572 101.471L496.724 101.415L496.779 101.374L497.015 101.277L497.139 101.208L497.472 101.069L497.804 100.917L497.873 100.875L497.97 100.82L498.136 100.751L498.192 100.668L498.455 100.529L498.759 100.294L498.843 100.183C498.815 100.058 498.746 100.003 498.621 99.8923C498.538 99.8508 498.399 99.8092 498.316 99.7677L498.192 99.6708C498.178 99.6708 498.164 99.6569 498.164 99.6569L498.095 99.6154H498.081C498.053 99.6154 497.998 99.6154 497.97 99.6015L497.527 99.56L497.416 99.5185C497.375 99.5185 497.333 99.5046 497.333 99.5046C496.807 99.4492 496.295 99.3938 495.755 99.3523H495.644L495.519 99.3246L495.436 99.3385L495.367 99.3246C495.229 99.3246 495.09 99.3108 494.966 99.3108C494.716 99.2969 494.481 99.2831 494.232 99.2831H494.052L493.304 99.3246L493.069 99.3385H492.889L492.764 99.3523L492.543 99.3938L492.376 99.4354L492.169 99.4908L492.044 99.5185L491.961 99.5462C491.947 99.56 491.919 99.5738 491.919 99.5738L491.836 99.6431L491.767 99.7262L491.739 99.8508L491.753 100.072L491.767 100.128L491.795 100.322L491.753 100.474L491.601 100.598L491.49 100.612L491.407 100.585L491.31 100.488L491.241 100.405L491.199 100.322L491.089 100.155L491.033 99.9615L491.019 99.8923C490.978 99.7954 491.006 99.7262 491.019 99.6569C491.061 99.5185 491.296 99.3385 491.366 99.2831L491.698 99.1308Z" fill="black"/>
<path d="M54.144 82.432C53.888 83.1147 53.9733 83.712 54.4 84.224C54.8267 84.736 55.5093 84.4373 56.448 83.328L75.52 61.696C75.6053 61.6107 75.8187 61.3973 76.16 61.056C76.5867 60.6293 77.0133 60.16 77.44 59.648C77.952 59.136 78.464 58.624 78.976 58.112C79.488 57.6 79.872 57.1307 80.128 56.704C80.5547 56.192 81.0667 55.6373 81.664 55.04C82.2613 54.3573 82.9013 53.7173 83.584 53.12C84.352 52.5227 85.0773 52.0107 85.76 51.584C86.528 51.072 87.2533 50.7733 87.936 50.688C88.448 50.688 88.832 50.7733 89.088 50.944C89.4293 51.1147 89.8133 51.328 90.24 51.584C91.9467 52.0107 92.8427 52.736 92.928 53.76C93.0987 54.784 93.184 56.2773 93.184 58.24C93.184 63.7013 93.0133 68.1813 92.672 71.68C92.3307 75.1787 92.2453 78.1653 92.416 80.64C92.5867 82.176 92.8853 83.5413 93.312 84.736C93.7387 85.9307 94.8053 86.7413 96.512 87.168C98.816 87.68 101.376 87.04 104.192 85.248C107.008 83.456 109.909 80.8533 112.896 77.44C115.968 74.0267 118.997 69.9733 121.984 65.28C124.971 60.5013 127.787 55.4667 130.432 50.176C133.077 44.8853 135.424 39.4667 137.472 33.92C139.52 28.288 141.099 22.912 142.208 17.792C142.464 16.6827 142.549 15.744 142.464 14.976C142.464 14.1227 142.421 13.44 142.336 12.928C142.251 12.3307 142.208 11.8613 142.208 11.52C142.293 11.0933 142.549 10.752 142.976 10.496C143.317 10.3253 143.872 10.368 144.64 10.624C145.408 10.7947 146.176 11.1787 146.944 11.776C147.712 12.3733 148.352 13.0987 148.864 13.952C149.376 14.72 149.589 15.616 149.504 16.64C148.992 20.3947 147.925 24.7467 146.304 29.696C144.768 34.6453 142.763 39.7653 140.288 45.056C137.899 50.3467 135.125 55.5947 131.968 60.8C128.896 65.92 125.568 70.6133 121.984 74.88C118.485 79.0613 114.816 82.56 110.976 85.376C107.136 88.192 103.296 89.8987 99.456 90.496C97.408 90.8373 95.36 90.624 93.312 89.856C91.3493 89.1733 89.984 87.552 89.216 84.992C88.3627 82.2613 88.1067 78.464 88.448 73.6C88.8747 68.6507 89.1733 62.4213 89.344 54.912C89.1733 54.912 88.6613 55.3387 87.808 56.192C87.04 57.0453 85.632 58.5387 83.584 60.672C81.6213 62.8053 78.9333 65.7493 75.52 69.504C72.192 73.2587 67.968 77.9947 62.848 83.712C60.3733 86.4427 58.368 87.936 56.832 88.192C55.296 88.5333 53.9307 88.448 52.736 87.936C51.0293 86.912 50.176 85.3333 50.176 83.2C50.2613 81.0667 50.6453 78.9333 51.328 76.8L56.064 63.744C51.5413 64.3413 46.976 64.4267 42.368 64C37.8453 63.488 33.7493 62.464 30.08 60.928C26.4107 59.3067 23.424 57.1733 21.12 54.528C18.9013 51.7973 17.8773 48.512 18.048 44.672C18.1333 41.6853 18.9013 39.2107 20.352 37.248C21.8027 35.2853 23.5093 33.664 25.472 32.384C26.1547 31.9573 27.0933 31.616 28.288 31.36C29.568 31.0187 30.8907 30.848 32.256 30.848C33.7067 30.848 35.1147 31.0613 36.48 31.488C37.8453 31.9147 38.9973 32.6827 39.936 33.792C40.5333 34.4747 40.96 34.944 41.216 35.2C41.472 35.3707 41.6427 35.3707 41.728 35.2C41.8987 35.0293 41.984 34.7307 41.984 34.304C42.0693 33.792 42.1973 33.152 42.368 32.384C42.88 29.568 43.4347 27.2213 44.032 25.344C44.6293 23.3813 45.3973 21.3333 46.336 19.2C47.4453 16.8107 48.9387 14.6347 50.816 12.672C52.6933 10.7093 54.784 9.088 57.088 7.808C59.392 6.52799 61.7813 5.63199 64.256 5.12C66.816 4.608 69.248 4.65066 71.552 5.24799C73.1733 5.84533 74.5387 6.74133 75.648 7.936C76.7573 9.04533 77.5253 10.5387 77.952 12.416C78.3787 14.2933 78.4213 16.5547 78.08 19.2C77.824 21.76 77.056 24.7467 75.776 28.16C74.0693 32.8533 72.32 37.376 70.528 41.728C68.736 45.9947 66.9013 50.2613 65.024 54.528C63.232 58.7947 61.3973 63.232 59.52 67.84C57.728 72.3627 55.936 77.2267 54.144 82.432ZM69.888 27.136C71.168 23.7227 71.7227 20.992 71.552 18.944C71.4667 16.8107 70.8693 15.2747 69.76 14.336C68.6507 13.312 67.2 12.8427 65.408 12.928C63.616 13.0133 61.696 13.4827 59.648 14.336C57.856 15.0187 56.1493 16.2133 54.528 17.92C52.9067 19.6267 51.456 21.5467 50.176 23.68C48.896 25.8133 47.7867 28.032 46.848 30.336C45.9947 32.5547 45.44 34.56 45.184 36.352C44.8427 38.7413 44.3733 40.1493 43.776 40.576C43.1787 40.9173 42.4107 40.704 41.472 39.936C38.9973 38.4 36.6933 37.6747 34.56 37.76C32.512 37.8453 30.7627 38.4427 29.312 39.552C27.8613 40.576 26.752 41.9413 25.984 43.648C25.3013 45.3547 25.088 47.0187 25.344 48.64C26.112 51.712 27.6907 54.144 30.08 55.936C32.4693 57.728 35.2 59.0507 38.272 59.904C41.4293 60.7573 44.672 61.2267 48 61.312C51.328 61.3973 54.3573 61.2693 57.088 60.928C58.0267 58.368 58.9227 55.936 59.776 53.632C60.6293 51.328 61.5253 48.896 62.464 46.336C63.4027 43.776 64.4693 40.96 65.664 37.888C66.8587 34.816 68.2667 31.232 69.888 27.136ZM65.792 58.88C66.7307 58.624 67.456 58.3253 67.968 57.984C68.48 57.6427 68.9493 57.3867 69.376 57.216C70.7413 56.3627 71.68 56.1493 72.192 56.576C72.7893 57.0027 72.5333 57.5573 71.424 58.24C70.4 58.9227 69.4187 59.52 68.48 60.032C67.6267 60.544 66.56 61.0133 65.28 61.44L65.792 58.88ZM152.417 51.584C153.782 51.7547 154.764 52.3947 155.361 53.504C155.446 52.6507 155.446 52.0533 155.361 51.712C155.276 51.2853 155.66 51.1147 156.513 51.2C157.366 51.2853 158.262 51.584 159.201 52.096C160.14 52.608 160.95 53.2907 161.633 54.144C162.316 54.9973 162.486 55.936 162.145 56.96C161.974 57.3867 161.548 58.1547 160.865 59.264C160.182 60.288 159.372 61.5253 158.433 62.976C157.58 64.4267 156.684 65.9627 155.745 67.584C154.806 69.12 153.996 70.5707 153.313 71.936C152.716 73.216 152.289 74.3253 152.033 75.264C151.777 76.1173 151.905 76.5867 152.417 76.672C152.929 76.8427 153.74 76.4587 154.849 75.52C156.044 74.5813 157.324 73.3867 158.689 71.936C160.054 70.4853 161.42 68.9067 162.785 67.2C164.236 65.4933 165.516 63.9147 166.625 62.464C167.308 61.696 167.905 61.5253 168.417 61.952C168.929 62.2933 169.014 62.848 168.673 63.616C167.649 65.152 166.412 66.9013 164.961 68.864C163.596 70.7413 162.145 72.5333 160.609 74.24C159.073 75.8613 157.494 77.2693 155.873 78.464C154.252 79.5733 152.758 80.128 151.393 80.128C149.43 80.2987 148.065 79.7867 147.297 78.592C146.529 77.312 146.06 76.0747 145.889 74.88C144.78 76.3307 143.628 77.5253 142.433 78.464C141.324 79.4027 140.086 79.872 138.721 79.872C137.441 79.9573 136.332 79.5733 135.393 78.72C134.454 77.8667 133.857 76.672 133.601 75.136C133.345 73.5147 133.516 71.5947 134.113 69.376C134.625 67.072 135.692 64.5547 137.313 61.824C139.276 59.008 141.452 56.576 143.841 54.528C146.316 52.3947 149.174 51.4133 152.417 51.584ZM139.105 76.928C140.641 76.7573 142.22 75.6053 143.841 73.472C145.718 71.2533 147.212 69.12 148.321 67.072C149.601 64.9387 150.54 63.2747 151.137 62.08C151.734 60.8 152.204 59.776 152.545 59.008C153.228 57.5573 153.654 56.3627 153.825 55.424C154.081 54.4853 153.782 54.016 152.929 54.016C152.502 54.016 151.862 54.3147 151.009 54.912C150.156 55.424 149.217 56.1493 148.193 57.088C147.254 58.0267 146.273 59.0933 145.249 60.288C144.225 61.3973 143.329 62.592 142.561 63.872C141.537 65.3227 140.684 66.8587 140.001 68.48C139.318 70.016 138.806 71.424 138.465 72.704C138.209 73.984 138.124 75.0507 138.209 75.904C138.294 76.672 138.593 77.0133 139.105 76.928ZM165.554 76.8C164.871 78.2507 164.317 79.1893 163.89 79.616C163.549 79.9573 163.335 80.128 163.25 80.128C162.397 80.128 161.714 79.872 161.202 79.36C160.69 78.7627 160.349 78.08 160.178 77.312C159.922 76.544 159.794 75.8187 159.794 75.136C159.794 74.368 159.879 73.8133 160.05 73.472C160.818 72.1067 161.799 70.3573 162.994 68.224C164.103 66.0907 165.17 63.9147 166.194 61.696C167.303 59.392 168.285 57.3013 169.138 55.424C169.991 53.4613 170.503 52.0107 170.674 51.072C170.589 50.56 170.93 50.3893 171.698 50.56C172.551 50.7307 173.447 51.1147 174.386 51.712C175.325 52.3093 176.135 53.0347 176.818 53.888C177.501 54.7413 177.671 55.5947 177.33 56.448C177.074 56.7893 176.733 57.344 176.306 58.112C175.965 58.88 175.495 59.776 174.898 60.8C177.202 58.1547 179.335 55.8933 181.298 54.016C183.261 52.0533 185.522 51.1573 188.082 51.328C190.557 51.4133 191.879 52.8213 192.05 55.552C192.221 56.7467 191.965 58.1547 191.282 59.776C190.685 61.3973 189.917 63.0613 188.978 64.768C188.039 66.4747 187.058 68.1387 186.034 69.76C185.095 71.296 184.413 72.576 183.986 73.6C183.474 74.4533 183.218 75.136 183.218 75.648C183.303 76.0747 183.517 76.3307 183.858 76.416C184.199 76.5013 184.626 76.416 185.138 76.16C185.735 75.904 186.29 75.52 186.802 75.008C187.399 74.4107 188.167 73.6 189.106 72.576C190.13 71.552 191.154 70.4853 192.178 69.376C193.287 68.1813 194.354 66.9867 195.378 65.792C196.402 64.512 197.213 63.4027 197.81 62.464C198.493 61.696 199.133 61.5253 199.73 61.952C200.327 62.2933 200.455 62.848 200.114 63.616C199.09 65.152 197.853 66.9013 196.402 68.864C195.037 70.7413 193.543 72.5333 191.922 74.24C190.386 75.8613 188.807 77.2693 187.186 78.464C185.565 79.5733 184.071 80.128 182.706 80.128C180.658 80.2133 179.079 79.6587 177.97 78.464C176.861 77.2693 176.434 75.6907 176.69 73.728C176.775 72.704 177.33 71.2107 178.354 69.248C179.463 67.2 180.573 65.152 181.682 63.104C182.791 61.056 183.602 59.3067 184.114 57.856C184.711 56.32 184.583 55.552 183.73 55.552C183.218 55.552 182.365 56.0213 181.17 56.96C179.975 57.8133 178.695 58.9227 177.33 60.288C175.965 61.568 174.642 63.0187 173.362 64.64C172.082 66.176 171.058 67.6267 170.29 68.992L165.554 76.8ZM192.702 73.216C193.043 71.68 193.726 69.8453 194.75 67.712C195.774 65.4933 196.798 63.3173 197.822 61.184C198.931 59.0507 199.87 57.1307 200.638 55.424C201.406 53.632 201.747 52.3947 201.662 51.712C201.491 51.2 201.79 50.9867 202.558 51.072C203.326 51.072 204.179 51.328 205.118 51.84C206.057 52.352 206.867 53.0773 207.55 54.016C208.318 54.8693 208.574 55.8507 208.318 56.96C208.233 57.3867 207.891 58.1547 207.294 59.264C206.697 60.288 205.971 61.4827 205.118 62.848C204.35 64.2133 203.539 65.664 202.686 67.2C201.833 68.6507 201.065 70.016 200.382 71.296C199.785 72.576 199.358 73.6427 199.102 74.496C198.931 75.3493 199.102 75.8187 199.614 75.904C200.126 76.0747 200.894 75.7333 201.918 74.88C202.942 74.0267 204.051 72.9173 205.246 71.552C206.526 70.1867 207.806 68.6933 209.086 67.072C210.451 65.4507 211.731 63.9147 212.926 62.464C213.438 61.7813 213.993 61.6107 214.59 61.952C215.273 62.208 215.358 62.7627 214.846 63.616C213.737 65.152 212.499 66.9013 211.134 68.864C209.769 70.7413 208.318 72.5333 206.782 74.24C205.331 75.8613 203.795 77.2693 202.174 78.464C200.638 79.5733 199.145 80.128 197.694 80.128C196.414 80.2133 195.433 80 194.75 79.488C193.982 78.976 193.427 78.3787 193.086 77.696C192.659 76.928 192.446 76.1173 192.446 75.264C192.446 74.4107 192.531 73.728 192.702 73.216ZM207.294 50.176C207.123 48.2987 206.825 46.72 206.398 45.44C206.057 44.16 205.673 43.1787 205.246 42.496C204.905 41.984 204.819 41.3867 204.99 40.704C205.161 39.936 205.417 39.4667 205.758 39.296C206.697 38.6133 207.422 38.4853 207.934 38.912C208.531 39.3387 209.001 39.8933 209.342 40.576C209.683 41.4293 209.982 42.4533 210.238 43.648C211.091 42.88 211.987 42.2827 212.926 41.856C213.609 41.4293 214.334 41.1733 215.102 41.088C215.955 41.0027 216.681 41.216 217.278 41.728C217.79 42.1547 218.046 42.752 218.046 43.52C218.131 44.2027 217.961 44.8853 217.534 45.568C217.107 46.2507 216.339 46.8907 215.23 47.488C214.121 48.0853 212.969 48.5973 211.774 49.024C210.579 49.4507 209.513 49.792 208.574 50.048C207.721 50.2187 207.294 50.2613 207.294 50.176ZM222.559 85.248C221.364 87.7227 220.042 90.4533 218.591 93.44C217.14 96.512 215.562 99.584 213.855 102.656C212.148 105.813 210.271 108.8 208.223 111.616C206.175 114.517 203.999 117.077 201.695 119.296C199.391 121.515 196.916 123.264 194.271 124.544C191.54 125.824 188.682 126.379 185.695 126.208C182.111 125.867 179.423 124.459 177.631 121.984C175.839 119.595 175.028 116.48 175.199 112.64C175.284 109.568 176.01 106.795 177.375 104.32C178.74 101.931 180.575 99.7547 182.879 97.792C185.098 95.9147 187.658 94.208 190.559 92.672C193.375 91.2213 196.319 89.856 199.391 88.576C202.463 87.296 205.535 86.0587 208.607 84.864C211.679 83.7547 214.495 82.6453 217.055 81.536L218.975 77.312C217.439 79.0187 215.775 79.872 213.983 79.872C212.618 79.9573 211.466 79.5733 210.527 78.72C209.588 77.8667 208.991 76.672 208.735 75.136C208.479 73.5147 208.65 71.5947 209.247 69.376C209.844 67.072 210.954 64.5547 212.575 61.824C214.367 58.9227 216.5 56.448 218.975 54.4C221.535 52.352 224.436 51.4133 227.679 51.584C228.874 51.584 229.684 52.096 230.111 53.12L230.495 51.712C230.495 51.2 230.922 50.9867 231.775 51.072C232.628 51.1573 233.524 51.4987 234.463 52.096C235.487 52.608 236.298 53.3333 236.895 54.272C237.578 55.1253 237.706 56.0213 237.279 56.96C235.572 59.9467 233.866 63.36 232.159 67.2C230.452 70.9547 228.746 74.4107 227.039 77.568C228.66 76.6293 230.111 75.648 231.391 74.624C232.756 73.6 234.079 72.4907 235.359 71.296C236.639 70.016 237.919 68.6507 239.199 67.2C240.479 65.664 241.844 63.9573 243.295 62.08C243.892 61.6533 244.404 61.6107 244.831 61.952C245.258 62.2933 245.386 62.8053 245.215 63.488C242.228 68.352 238.986 72.2347 235.487 75.136C231.988 77.952 228.191 80.3413 224.095 82.304L222.559 85.248ZM185.055 123.776C187.53 124.032 190.047 123.179 192.607 121.216C195.082 119.253 197.599 116.48 200.159 112.896C202.634 109.397 205.108 105.301 207.583 100.608C210.058 96 212.532 91.136 215.007 86.016C212.106 87.2107 208.735 88.576 204.895 90.112C201.055 91.7333 197.343 93.568 193.759 95.616C190.09 97.664 186.762 99.968 183.775 102.528C180.788 105.173 178.74 108.16 177.631 111.488C177.375 112.768 177.375 114.091 177.631 115.456C177.887 116.907 178.356 118.187 179.039 119.296C179.636 120.491 180.447 121.472 181.471 122.24C182.495 123.093 183.69 123.605 185.055 123.776ZM214.495 76.928C215.86 76.7573 217.396 75.6053 219.103 73.472C220.895 71.2533 222.73 68.6933 224.607 65.792C225.29 64.512 225.93 63.2747 226.527 62.08C227.124 60.8 227.764 59.5627 228.447 58.368C228.532 57.856 228.66 57.344 228.831 56.832C229.002 56.32 229.13 55.8507 229.215 55.424C229.3 54.9973 229.258 54.656 229.087 54.4C229.002 54.144 228.703 54.016 228.191 54.016C227.679 54.016 226.996 54.3147 226.143 54.912C225.375 55.424 224.479 56.1493 223.455 57.088C222.516 58.0267 221.535 59.0933 220.511 60.288C219.572 61.4827 218.719 62.6773 217.951 63.872C216.927 65.3227 216.074 66.8587 215.391 68.48C214.708 70.016 214.196 71.424 213.855 72.704C213.599 73.984 213.514 75.0507 213.599 75.904C213.684 76.672 213.983 77.0133 214.495 76.928ZM257.542 51.584C258.907 51.7547 259.889 52.3947 260.486 53.504C260.571 52.6507 260.571 52.0533 260.486 51.712C260.401 51.2853 260.785 51.1147 261.638 51.2C262.491 51.2853 263.387 51.584 264.326 52.096C265.265 52.608 266.075 53.2907 266.758 54.144C267.441 54.9973 267.611 55.936 267.27 56.96C267.099 57.3867 266.673 58.1547 265.99 59.264C265.307 60.288 264.497 61.5253 263.558 62.976C262.705 64.4267 261.809 65.9627 260.87 67.584C259.931 69.12 259.121 70.5707 258.438 71.936C257.841 73.216 257.414 74.3253 257.158 75.264C256.902 76.1173 257.03 76.5867 257.542 76.672C258.054 76.8427 258.865 76.4587 259.974 75.52C261.169 74.5813 262.449 73.3867 263.814 71.936C265.179 70.4853 266.545 68.9067 267.91 67.2C269.361 65.4933 270.641 63.9147 271.75 62.464C272.433 61.696 273.03 61.5253 273.542 61.952C274.054 62.2933 274.139 62.848 273.798 63.616C272.774 65.152 271.537 66.9013 270.086 68.864C268.721 70.7413 267.27 72.5333 265.734 74.24C264.198 75.8613 262.619 77.2693 260.998 78.464C259.377 79.5733 257.883 80.128 256.518 80.128C254.555 80.2987 253.19 79.7867 252.422 78.592C251.654 77.312 251.185 76.0747 251.014 74.88C249.905 76.3307 248.753 77.5253 247.558 78.464C246.449 79.4027 245.211 79.872 243.846 79.872C242.566 79.9573 241.457 79.5733 240.518 78.72C239.579 77.8667 238.982 76.672 238.726 75.136C238.47 73.5147 238.641 71.5947 239.238 69.376C239.75 67.072 240.817 64.5547 242.438 61.824C244.401 59.008 246.577 56.576 248.966 54.528C251.441 52.3947 254.299 51.4133 257.542 51.584ZM244.23 76.928C245.766 76.7573 247.345 75.6053 248.966 73.472C250.843 71.2533 252.337 69.12 253.446 67.072C254.726 64.9387 255.665 63.2747 256.262 62.08C256.859 60.8 257.329 59.776 257.67 59.008C258.353 57.5573 258.779 56.3627 258.95 55.424C259.206 54.4853 258.907 54.016 258.054 54.016C257.627 54.016 256.987 54.3147 256.134 54.912C255.281 55.424 254.342 56.1493 253.318 57.088C252.379 58.0267 251.398 59.0933 250.374 60.288C249.35 61.3973 248.454 62.592 247.686 63.872C246.662 65.3227 245.809 66.8587 245.126 68.48C244.443 70.016 243.931 71.424 243.59 72.704C243.334 73.984 243.249 75.0507 243.334 75.904C243.419 76.672 243.718 77.0133 244.23 76.928ZM295.127 63.872C293.676 66.0907 292.012 68.3947 290.135 70.784C288.258 73.088 285.954 75.0507 283.223 76.672C279.81 79.0613 276.567 80.2987 273.495 80.384C272.044 80.5547 270.679 80.384 269.399 79.872C268.204 79.36 267.223 78.336 266.455 76.8C266.284 76.3733 266.455 76.16 266.967 76.16C269.527 76.3307 271.49 75.8613 272.855 74.752C274.22 73.5573 275.202 72.064 275.799 70.272C276.482 68.48 276.908 66.5173 277.079 64.384C277.25 62.2507 277.378 60.288 277.463 58.496C276.524 59.6907 275.671 60.8427 274.903 61.952C274.22 63.0613 273.452 64.1707 272.599 65.28C272.428 65.536 272.172 65.664 271.831 65.664C271.49 65.664 271.191 65.5787 270.935 65.408C270.679 65.152 270.508 64.896 270.423 64.64C270.423 64.2987 270.594 63.9573 270.935 63.616C272.044 62.08 273.154 60.4587 274.263 58.752C275.372 56.96 276.482 55.2533 277.591 53.632C277.762 51.328 278.444 49.2373 279.639 47.36C280.919 45.4827 282.37 44.3307 283.991 43.904C284.418 43.8187 284.972 43.9893 285.655 44.416C286.423 44.8427 287.148 45.3547 287.831 45.952C288.514 46.5493 289.068 47.1467 289.495 47.744C290.007 48.3413 290.178 48.8107 290.007 49.152C288.044 50.2613 285.527 52.352 282.455 55.424C282.114 56.2773 282.028 57.3867 282.199 58.752C282.37 60.032 282.583 61.4827 282.839 63.104C283.18 64.64 283.436 66.2187 283.607 67.84C283.863 69.4613 283.82 71.04 283.479 72.576C285.356 71.3813 287.02 70.016 288.471 68.48C290.007 66.8587 291.628 64.768 293.335 62.208C293.762 61.7813 294.274 61.7813 294.871 62.208C295.468 62.6347 295.554 63.1893 295.127 63.872ZM294.614 59.776C294.87 59.776 295.169 59.776 295.51 59.776C295.937 59.776 296.449 59.8187 297.046 59.904L297.558 58.88C297.899 57.856 298.411 56.832 299.094 55.808C299.862 54.6987 300.758 53.76 301.782 52.992C302.891 52.1387 304.129 51.4987 305.494 51.072C306.859 50.56 308.31 50.3893 309.846 50.56C312.235 50.56 313.771 51.328 314.454 52.864C315.222 54.4 315.393 56.32 314.966 58.624C314.539 60.8427 313.643 63.232 312.278 65.792C310.913 68.352 309.334 70.656 307.542 72.704C308.737 72.6187 309.889 72.2773 310.998 71.68C312.193 70.9973 313.302 70.2293 314.326 69.376C315.35 68.4373 316.331 67.4133 317.27 66.304C318.209 65.1947 319.062 64.128 319.83 63.104C320.427 62.592 320.982 62.5493 321.494 62.976C322.006 63.4027 322.006 64 321.494 64.768C319.531 67.7547 317.27 70.3147 314.71 72.448C312.15 74.5813 308.865 75.648 304.854 75.648C303.403 77.0133 302.081 78.08 300.886 78.848C299.691 79.616 298.497 80.0427 297.302 80.128C294.998 80.128 293.249 79.6587 292.054 78.72C290.859 77.696 290.091 76.4587 289.75 75.008C289.323 73.472 289.281 71.8507 289.622 70.144C289.878 68.4373 290.347 66.8587 291.03 65.408C291.542 64.384 292.054 63.4027 292.566 62.464C293.163 61.5253 293.846 60.6293 294.614 59.776ZM310.486 52.608C309.206 52.352 307.798 53.0773 306.262 54.784C304.811 56.4053 303.574 58.368 302.55 60.672C301.611 62.976 301.142 65.28 301.142 67.584C301.142 69.888 301.995 71.552 303.702 72.576C305.153 70.784 306.518 68.8213 307.798 66.688C309.078 64.4693 310.102 62.3787 310.87 60.416C311.638 58.4533 312.022 56.7467 312.022 55.296C312.022 53.8453 311.51 52.9493 310.486 52.608ZM301.782 74.624C300.843 74.112 300.033 73.4293 299.35 72.576C298.667 71.7227 298.113 70.7413 297.686 69.632C296.747 71.424 296.15 73.0453 295.894 74.496C295.638 75.8613 296.193 76.6293 297.558 76.8C298.155 76.8853 298.838 76.7147 299.606 76.288C300.374 75.8613 301.099 75.3067 301.782 74.624ZM321.739 59.776C321.995 59.776 322.294 59.776 322.635 59.776C323.062 59.776 323.574 59.8187 324.171 59.904L324.683 58.88C325.024 57.856 325.536 56.832 326.219 55.808C326.987 54.6987 327.883 53.76 328.907 52.992C330.016 52.1387 331.254 51.4987 332.619 51.072C333.984 50.56 335.435 50.3893 336.971 50.56C339.36 50.56 340.896 51.328 341.579 52.864C342.347 54.4 342.518 56.32 342.091 58.624C341.664 60.8427 340.768 63.232 339.403 65.792C338.038 68.352 336.459 70.656 334.667 72.704C335.862 72.6187 337.014 72.2773 338.123 71.68C339.318 70.9973 340.427 70.2293 341.451 69.376C342.475 68.4373 343.456 67.4133 344.395 66.304C345.334 65.1947 346.187 64.128 346.955 63.104C347.552 62.592 348.107 62.5493 348.619 62.976C349.131 63.4027 349.131 64 348.619 64.768C346.656 67.7547 344.395 70.3147 341.835 72.448C339.275 74.5813 335.99 75.648 331.979 75.648C330.528 77.0133 329.206 78.08 328.011 78.848C326.816 79.616 325.622 80.0427 324.427 80.128C322.123 80.128 320.374 79.6587 319.179 78.72C317.984 77.696 317.216 76.4587 316.875 75.008C316.448 73.472 316.406 71.8507 316.747 70.144C317.003 68.4373 317.472 66.8587 318.155 65.408C318.667 64.384 319.179 63.4027 319.691 62.464C320.288 61.5253 320.971 60.6293 321.739 59.776ZM337.611 52.608C336.331 52.352 334.923 53.0773 333.387 54.784C331.936 56.4053 330.699 58.368 329.675 60.672C328.736 62.976 328.267 65.28 328.267 67.584C328.267 69.888 329.12 71.552 330.827 72.576C332.278 70.784 333.643 68.8213 334.923 66.688C336.203 64.4693 337.227 62.3787 337.995 60.416C338.763 58.4533 339.147 56.7467 339.147 55.296C339.147 53.8453 338.635 52.9493 337.611 52.608ZM328.907 74.624C327.968 74.112 327.158 73.4293 326.475 72.576C325.792 71.7227 325.238 70.7413 324.811 69.632C323.872 71.424 323.275 73.0453 323.019 74.496C322.763 75.8613 323.318 76.6293 324.683 76.8C325.28 76.8853 325.963 76.7147 326.731 76.288C327.499 75.8613 328.224 75.3067 328.907 74.624ZM350.912 71.04C351.253 70.3573 351.723 69.376 352.32 68.096C352.917 66.816 353.515 65.536 354.112 64.256C354.709 62.976 355.179 61.7813 355.52 60.672C355.861 59.4773 355.947 58.6667 355.776 58.24C355.52 57.8987 355.264 57.6 355.008 57.344C354.837 57.0027 354.667 56.6613 354.496 56.32L348.224 65.28C347.883 65.792 347.371 65.8773 346.688 65.536C346.005 65.1093 345.92 64.4693 346.432 63.616C347.2 62.336 348.011 61.056 348.864 59.776C349.803 58.4107 350.741 57.0027 351.68 55.552C352.021 55.1253 352.192 54.5707 352.192 53.888C352.192 53.12 352.619 51.4987 353.472 49.024C354.325 46.3787 355.477 44.416 356.928 43.136C358.379 41.856 359.445 41.088 360.128 40.832C360.811 40.576 361.536 40.6613 362.304 41.088C363.072 41.4293 363.755 41.8987 364.352 42.496C365.035 43.0933 365.589 43.7333 366.016 44.416C366.443 45.0133 366.656 45.4827 366.656 45.824C364.181 46.6773 362.219 47.9573 360.768 49.664C359.403 51.3707 358.421 52.8213 357.824 54.016C357.483 54.6987 357.739 55.6373 358.592 56.832C359.445 58.0267 360.469 59.392 361.664 60.928C361.92 61.7813 361.621 63.0613 360.768 64.768C359.915 66.4747 359.019 68.1813 358.08 69.888C357.227 71.5093 356.587 72.9173 356.16 74.112C355.733 75.3067 356.032 75.8187 357.056 75.648C357.483 75.648 358.165 75.264 359.104 74.496C360.043 73.6427 361.067 72.576 362.176 71.296C363.371 70.016 364.608 68.5653 365.888 66.944C367.168 65.3227 368.32 63.744 369.344 62.208C369.856 61.3547 370.453 61.1413 371.136 61.568C371.904 61.9947 372.117 62.592 371.776 63.36C370.325 65.152 368.875 67.0293 367.424 68.992C365.973 70.8693 364.565 72.6187 363.2 74.24C361.92 75.776 360.64 77.0987 359.36 78.208C358.08 79.3173 356.928 79.9573 355.904 80.128C354.624 80.2133 353.557 80 352.704 79.488C351.851 78.976 351.168 78.2933 350.656 77.44C350.229 76.5013 350.016 75.4773 350.016 74.368C350.101 73.2587 350.4 72.1493 350.912 71.04ZM363.952 73.216C364.293 71.68 364.976 69.8453 366 67.712C367.024 65.4933 368.048 63.3173 369.072 61.184C370.181 59.0507 371.12 57.1307 371.888 55.424C372.656 53.632 372.997 52.3947 372.912 51.712C372.741 51.2 373.04 50.9867 373.808 51.072C374.576 51.072 375.429 51.328 376.368 51.84C377.307 52.352 378.117 53.0773 378.8 54.016C379.568 54.8693 379.824 55.8507 379.568 56.96C379.483 57.3867 379.141 58.1547 378.544 59.264C377.947 60.288 377.221 61.4827 376.368 62.848C375.6 64.2133 374.789 65.664 373.936 67.2C373.083 68.6507 372.315 70.016 371.632 71.296C371.035 72.576 370.608 73.6427 370.352 74.496C370.181 75.3493 370.352 75.8187 370.864 75.904C371.376 76.0747 372.144 75.7333 373.168 74.88C374.192 74.0267 375.301 72.9173 376.496 71.552C377.776 70.1867 379.056 68.6933 380.336 67.072C381.701 65.4507 382.981 63.9147 384.176 62.464C384.688 61.7813 385.243 61.6107 385.84 61.952C386.523 62.208 386.608 62.7627 386.096 63.616C384.987 65.152 383.749 66.9013 382.384 68.864C381.019 70.7413 379.568 72.5333 378.032 74.24C376.581 75.8613 375.045 77.2693 373.424 78.464C371.888 79.5733 370.395 80.128 368.944 80.128C367.664 80.2133 366.683 80 366 79.488C365.232 78.976 364.677 78.3787 364.336 77.696C363.909 76.928 363.696 76.1173 363.696 75.264C363.696 74.4107 363.781 73.728 363.952 73.216ZM378.544 50.176C378.373 48.2987 378.075 46.72 377.648 45.44C377.307 44.16 376.923 43.1787 376.496 42.496C376.155 41.984 376.069 41.3867 376.24 40.704C376.411 39.936 376.667 39.4667 377.008 39.296C377.947 38.6133 378.672 38.4853 379.184 38.912C379.781 39.3387 380.251 39.8933 380.592 40.576C380.933 41.4293 381.232 42.4533 381.488 43.648C382.341 42.88 383.237 42.2827 384.176 41.856C384.859 41.4293 385.584 41.1733 386.352 41.088C387.205 41.0027 387.931 41.216 388.528 41.728C389.04 42.1547 389.296 42.752 389.296 43.52C389.381 44.2027 389.211 44.8853 388.784 45.568C388.357 46.2507 387.589 46.8907 386.48 47.488C385.371 48.0853 384.219 48.5973 383.024 49.024C381.829 49.4507 380.763 49.792 379.824 50.048C378.971 50.2187 378.544 50.2613 378.544 50.176ZM394.193 71.552C392.657 73.7707 390.865 75.776 388.817 77.568C386.854 79.2747 385.062 80.128 383.441 80.128C382.246 80.2133 381.308 80.0427 380.625 79.616C379.857 79.104 379.302 78.464 378.961 77.696C378.62 76.928 378.449 76.16 378.449 75.392C378.364 74.5387 378.406 73.8133 378.577 73.216C378.918 71.68 379.601 69.8453 380.625 67.712C381.649 65.4933 382.673 63.3173 383.697 61.184C384.806 59.0507 385.745 57.1307 386.513 55.424C387.281 53.632 387.622 52.3947 387.537 51.712C387.366 51.2 387.665 50.9867 388.433 51.072C389.201 51.072 390.012 51.328 390.865 51.84C391.804 52.352 392.614 53.0773 393.297 54.016C394.065 54.8693 394.364 55.8507 394.193 56.96C394.108 57.3867 393.766 58.1547 393.169 59.264C392.657 60.288 391.974 61.5253 391.121 62.976C390.353 64.3413 389.5 65.792 388.561 67.328C387.708 68.864 386.982 70.3147 386.385 71.68C385.788 72.96 385.361 74.0267 385.105 74.88C384.849 75.7333 384.977 76.2027 385.489 76.288C385.83 76.4587 386.598 76.16 387.793 75.392C388.988 74.5387 390.31 73.3867 391.761 71.936C393.212 70.4 394.662 68.6933 396.113 66.816C397.564 64.8533 398.801 62.848 399.825 60.8C399.996 60.288 400.209 59.776 400.465 59.264C400.806 58.6667 401.02 58.1547 401.105 57.728C402.3 54.8267 402.897 52.8213 402.897 51.712C402.897 51.1147 403.324 50.9013 404.177 51.072C405.116 51.1573 406.054 51.4987 406.993 52.096C407.932 52.6933 408.7 53.4187 409.297 54.272C409.98 55.1253 410.065 56.0213 409.553 56.96C408.017 59.9467 406.353 63.36 404.561 67.2C402.854 70.9547 401.148 74.4107 399.441 77.568C401.062 76.544 402.513 75.52 403.793 74.496C405.158 73.472 406.438 72.3627 407.633 71.168C408.913 69.888 410.193 68.5227 411.473 67.072C412.753 65.6213 414.161 63.9573 415.697 62.08C416.294 61.6533 416.806 61.6107 417.233 61.952C417.66 62.2933 417.788 62.8053 417.617 63.488C414.374 68.352 411.089 72.2347 407.761 75.136C404.433 77.952 400.678 80.3413 396.497 82.304L394.961 85.248C393.681 87.808 392.316 90.5813 390.865 93.568C389.414 96.5547 387.793 99.584 386.001 102.656C384.294 105.728 382.46 108.672 380.497 111.488C378.534 114.389 376.401 116.949 374.097 119.168C371.793 121.387 369.318 123.136 366.673 124.416C363.942 125.696 361.084 126.293 358.097 126.208C354.513 125.867 351.825 124.459 350.033 121.984C348.241 119.595 347.43 116.48 347.601 112.64C347.601 109.653 348.284 106.923 349.649 104.448C351.014 102.059 352.849 99.8827 355.153 97.92C357.372 95.9573 359.932 94.208 362.833 92.672C365.734 91.136 368.764 89.6853 371.921 88.32C374.993 87.04 378.022 85.8453 381.009 84.736C384.081 83.6267 386.897 82.56 389.457 81.536L394.193 71.552ZM357.457 123.776C359.932 124.032 362.406 123.179 364.881 121.216C367.356 119.253 369.873 116.48 372.433 112.896C374.908 109.397 377.425 105.301 379.985 100.608C382.46 96 384.977 91.136 387.537 86.016C384.55 87.2107 381.137 88.576 377.297 90.112C373.457 91.7333 369.702 93.568 366.033 95.616C362.278 97.664 358.95 99.968 356.049 102.528C353.148 105.173 351.185 108.16 350.161 111.488C349.82 112.768 349.777 114.091 350.033 115.456C350.204 116.907 350.63 118.187 351.313 119.296C351.996 120.491 352.892 121.472 354.001 122.24C355.025 123.093 356.177 123.605 357.457 123.776ZM429.917 51.584C431.282 51.7547 432.264 52.3947 432.861 53.504C432.946 52.6507 432.946 52.0533 432.861 51.712C432.776 51.2853 433.16 51.1147 434.013 51.2C434.866 51.2853 435.762 51.584 436.701 52.096C437.64 52.608 438.45 53.2907 439.133 54.144C439.816 54.9973 439.986 55.936 439.645 56.96C439.474 57.3867 439.048 58.1547 438.365 59.264C437.682 60.288 436.872 61.5253 435.933 62.976C435.08 64.4267 434.184 65.9627 433.245 67.584C432.306 69.12 431.496 70.5707 430.813 71.936C430.216 73.216 429.789 74.3253 429.533 75.264C429.277 76.1173 429.405 76.5867 429.917 76.672C430.429 76.8427 431.24 76.4587 432.349 75.52C433.544 74.5813 434.824 73.3867 436.189 71.936C437.554 70.4853 438.92 68.9067 440.285 67.2C441.736 65.4933 443.016 63.9147 444.125 62.464C444.808 61.696 445.405 61.5253 445.917 61.952C446.429 62.2933 446.514 62.848 446.173 63.616C445.149 65.152 443.912 66.9013 442.461 68.864C441.096 70.7413 439.645 72.5333 438.109 74.24C436.573 75.8613 434.994 77.2693 433.373 78.464C431.752 79.5733 430.258 80.128 428.893 80.128C426.93 80.2987 425.565 79.7867 424.797 78.592C424.029 77.312 423.56 76.0747 423.389 74.88C422.28 76.3307 421.128 77.5253 419.933 78.464C418.824 79.4027 417.586 79.872 416.221 79.872C414.941 79.9573 413.832 79.5733 412.893 78.72C411.954 77.8667 411.357 76.672 411.101 75.136C410.845 73.5147 411.016 71.5947 411.613 69.376C412.125 67.072 413.192 64.5547 414.813 61.824C416.776 59.008 418.952 56.576 421.341 54.528C423.816 52.3947 426.674 51.4133 429.917 51.584ZM416.605 76.928C418.141 76.7573 419.72 75.6053 421.341 73.472C423.218 71.2533 424.712 69.12 425.821 67.072C427.101 64.9387 428.04 63.2747 428.637 62.08C429.234 60.8 429.704 59.776 430.045 59.008C430.728 57.5573 431.154 56.3627 431.325 55.424C431.581 54.4853 431.282 54.016 430.429 54.016C430.002 54.016 429.362 54.3147 428.509 54.912C427.656 55.424 426.717 56.1493 425.693 57.088C424.754 58.0267 423.773 59.0933 422.749 60.288C421.725 61.3973 420.829 62.592 420.061 63.872C419.037 65.3227 418.184 66.8587 417.501 68.48C416.818 70.016 416.306 71.424 415.965 72.704C415.709 73.984 415.624 75.0507 415.709 75.904C415.794 76.672 416.093 77.0133 416.605 76.928Z" fill="black"/>
</g>
<defs>
<clipPath id="clip0_12_8">
<rect width="511" height="137" fill="white"/>
</clipPath>
</defs>
</svg>
